<?xml version="1.0" encoding="UTF-8" standalone="no"?>
<svg
   width="181.2"
   height="38.682"
   viewBox="0 0 181.2 38.682"
   version="1.1"
   id="svg5"
   sodipodi:docname="FormsLab (1).svg"
   inkscape:version="1.2.2 (732a01da63, 2022-12-09)"
   xmlns:inkscape="http://www.inkscape.org/namespaces/inkscape"
   xmlns:sodipodi="http://sodipodi.sourceforge.net/DTD/sodipodi-0.dtd"
   xmlns="http://www.w3.org/2000/svg"
   xmlns:svg="http://www.w3.org/2000/svg">
  <defs
     id="defs9" />
  <sodipodi:namedview
     id="namedview7"
     pagecolor="#ffffff"
     bordercolor="#000000"
     borderopacity="0.25"
     inkscape:showpageshadow="2"
     inkscape:pageopacity="0.0"
     inkscape:pagecheckerboard="0"
     inkscape:deskcolor="#d1d1d1"
     showgrid="false"
     inkscape:zoom="2.5560428"
     inkscape:cx="256.64672"
     inkscape:cy="44.013348"
     inkscape:window-width="1920"
     inkscape:window-height="991"
     inkscape:window-x="2391"
     inkscape:window-y="-9"
     inkscape:window-maximized="1"
     inkscape:current-layer="svgGroup" />
  <g
     id="svgGroup"
     stroke-linecap="round"
     fill-rule="evenodd"
     font-size="9pt"
     stroke="#52525B"
     stroke-width="0.001mm"
     fill="#52525B"
     style="stroke:#52525B;stroke-width:0.001mm;fill:#52525B">
    <path
       d="m 46.844,30.254 c 0.445321,-0.05461 0.888328,-0.126663 1.328,-0.216 -0.0095,0.347581 -0.01353,0.695292 -0.012,1.043 0,1.686667 0.106667,3.042667 0.32,4.068 0.07126,0.358234 0.171589,0.710065 0.3,1.052 0.0789,0.207567 0.178045,0.406862 0.296,0.595 0.221333,0.347333 0.493,0.604333 0.815,0.771 0.318964,0.16025 0.672104,0.240556 1.029,0.234 0.131896,5.4e-5 0.263718,-0.0063 0.395,-0.019 0.239333,-0.02267 0.456333,-0.068 0.651,-0.136 0.297818,-0.09755 0.564744,-0.27171 0.774,-0.505 0.09837,-0.114677 0.185445,-0.238585 0.26,-0.37 0.281333,-0.482667 0.534667,-1.206 0.76,-2.17 0.4,-1.626667 0.92,-3.173333 1.56,-4.64 0.1556,-0.357361 0.318636,-0.711437 0.489,-1.062 0.238667,-0.49 0.478333,-0.940667 0.719,-1.352 0.224733,-0.387513 0.469049,-0.763333 0.732,-1.126 0.04467,-0.06116 0.09001,-0.121827 0.136,-0.182 0.590667,-0.772 1.072,-1.158 1.444,-1.158 0.008,-1.65e-4 0.016,-1.65e-4 0.024,0 0.222,0.0093 0.355,0.147333 0.399,0.414 0.01186,0.07474 0.01755,0.150328 0.017,0.226 0,0.142667 -0.01567,0.387 -0.047,0.733 -0.01045,0.115719 -0.02145,0.231387 -0.033,0.347 -0.08,0.4 -0.12,0.8 -0.12,1.2 -0.0017,0.327344 0.02742,0.654121 0.087,0.976 0.126923,0.7377 0.481078,1.417341 1.013,1.944 0.223798,0.218927 0.47769,0.404801 0.754,0.552 0.656,0.352 1.478,0.528 2.466,0.528 1.028665,0.0018 2.043202,-0.239456 2.961,-0.704 0.0018,0.33508 0.0084,0.670116 0.02,1.005 0.04,1.132667 0.139667,2.081667 0.299,2.847 0.07126,0.358234 0.171589,0.710065 0.3,1.052 0.0789,0.207567 0.178045,0.406862 0.296,0.595 0.221333,0.347333 0.493,0.604333 0.815,0.771 0.318964,0.16025 0.672104,0.240556 1.029,0.234 0.131896,5.4e-5 0.263718,-0.0063 0.395,-0.019 0.239333,-0.02267 0.456333,-0.068 0.651,-0.136 0.297818,-0.09755 0.564744,-0.27171 0.774,-0.505 0.09837,-0.114677 0.185445,-0.238585 0.26,-0.37 0.281333,-0.482667 0.534667,-1.206 0.76,-2.17 0.06548,-0.271885 0.134484,-0.542907 0.207,-0.813 0.328335,-1.215258 0.719867,-2.412553 1.173,-3.587 0.129621,-0.337748 0.26531,-0.673135 0.407,-1.006 0.227333,-0.534667 0.458,-1.028667 0.692,-1.482 0.2086,-0.407566 0.435841,-0.80532 0.681,-1.192 0.04772,-0.07495 0.09639,-0.14929 0.146,-0.223 0.382,-0.564667 0.72,-0.933 1.014,-1.105 0.107942,-0.0686 0.23219,-0.107258 0.36,-0.112 0.008,-1.65e-4 0.016,-1.65e-4 0.024,0 0.222,0.0093 0.355,0.147333 0.399,0.414 0.01186,0.07474 0.01755,0.150328 0.017,0.226 -1.05e-4,0.08837 -0.0021,0.17672 -0.006,0.265 -0.02,0.447333 -0.083,1.133667 -0.189,2.059 -0.03996,0.345537 -0.08163,0.690874 -0.125,1.036 -0.04304,0.31006 -0.08404,0.6204 -0.123,0.931 -0.184667,1.47 -0.277,2.626333 -0.277,3.469 -9.5e-5,0.06967 5.72e-4,0.139343 0.002,0.209 0.01067,0.483333 0.05833,0.936667 0.143,1.36 0.0996,0.519038 0.27303,1.021136 0.515,1.491 0.06044,0.116212 0.128241,0.228441 0.203,0.336 0.431333,0.616 1.023667,0.924 1.777,0.924 0.446667,0 0.829333,-0.05867 1.148,-0.176 0.271745,-0.09404 0.516238,-0.253369 0.712,-0.464 0.109232,-0.124177 0.204471,-0.259994 0.284,-0.405 0.181333,-0.320667 0.351,-0.748 0.509,-1.282 0.08472,-0.288569 0.160429,-0.579711 0.227,-0.873 0.4,-1.626667 0.92,-3.173333 1.56,-4.64 0.155635,-0.357189 0.318334,-0.711258 0.488,-1.062 0.477333,-0.985333 0.954667,-1.811333 1.432,-2.478 0.64,-0.893333 1.133333,-1.34 1.48,-1.34 0.008,-1.65e-4 0.016,-1.65e-4 0.024,0 0.222,0.0093 0.355,0.147333 0.399,0.414 0.01186,0.07474 0.01755,0.150328 0.017,0.226 -1.59e-4,0.03701 -8.26e-4,0.07401 -0.002,0.111 -0.01333,0.495333 -0.114333,1.253 -0.303,2.273 -0.06789,0.366064 -0.139561,0.731417 -0.215,1.096 -0.282667,1.454667 -0.458333,2.572667 -0.527,3.354 -0.02024,0.214762 -0.03125,0.430294 -0.033,0.646 -5.78e-4,0.263068 0.0111,0.526019 0.035,0.788 0.04333,0.462667 0.126667,0.884667 0.25,1.266 0.15452,0.502634 0.4116,0.967761 0.755,1.366 0.160889,0.182713 0.342437,0.346139 0.541,0.487 0.378667,0.268667 0.823667,0.459333 1.335,0.572 0.395799,0.08361 0.799479,0.124179 1.204,0.121 1.68,0 3.18,-0.453333 4.5,-1.36 0.547277,-0.377116 1.070309,-0.78826 1.566,-1.231 0.770844,-0.690866 1.484507,-1.442988 2.134,-2.249 0.12652,-0.147052 0.236823,-0.30731 0.329,-0.478 0.152631,-0.185478 0.302976,-0.372825 0.451,-0.562 0.155582,-0.199121 0.306948,-0.401499 0.454,-0.607 0.33267,-0.464667 0.66667,-0.974 1.002,-1.528 0.35256,-0.584754 0.68738,-1.180026 1.004,-1.785 0.0251,0.02858 0.0501,0.05725 0.075,0.086 0.17533,0.202667 0.35633,0.421333 0.543,0.656 0.19809,0.249499 0.39212,0.502199 0.582,0.758 0.0266,0.0355 0.0529,0.07117 0.079,0.107 0.38187,0.523626 0.7105,1.084073 0.981,1.673 0.28,0.613333 0.43333,1.266667 0.46,1.96 -0.0624,-0.007 -0.12471,-0.01431 -0.187,-0.022 -0.15133,-0.01867 -0.33267,-0.04267 -0.544,-0.072 -0.1097,-0.01508 -0.21937,-0.03042 -0.329,-0.046 -0.27733,-0.04 -0.53333,-0.068 -0.768,-0.084 -0.15044,-0.01047 -0.3012,-0.0158 -0.452,-0.016 -0.13481,-2.38e-4 -0.26958,0.0048 -0.404,0.015 -0.308,0.024 -0.589,0.07633 -0.843,0.157 -0.37369,0.112798 -0.71443,0.314568 -0.993,0.588 -0.0077,0.008 -0.01538,0.01596 -0.023,0.024 -0.47693,0.467165 -0.743035,1.108416 -0.737,1.776 0.0011,0.527707 0.1668,1.041926 0.474,1.471 0.179385,0.254659 0.38966,0.486092 0.626,0.689 0.24397,0.211105 0.51711,0.385905 0.811,0.519 0.34467,0.158 0.733,0.273667 1.165,0.347 0.39801,0.06484 0.80075,0.09628 1.204,0.094 1.46667,0 2.73333,-0.453333 3.8,-1.36 0.23257,-0.0069 0.46496,-0.01893 0.697,-0.036 0.68133,-0.05 1.31733,-0.143667 1.908,-0.281 0.32222,-0.07218 0.64007,-0.162659 0.952,-0.271 0.0139,0.01077 0.0279,0.02144 0.042,0.032 0.007,0.0054 0.014,0.01069 0.021,0.016 0.19244,0.146224 0.39682,0.276014 0.611,0.388 0.44467,0.232667 0.94633,0.401333 1.505,0.506 0.4831,0.08686 0.97317,0.129041 1.464,0.126 0.13773,-3.3e-5 0.27543,-0.0034 0.413,-0.01 1.60333,-0.07667 2.958,-0.607333 4.064,-1.592 0.6649,-0.606716 1.22065,-1.323132 1.643,-2.118 1.41333,0.426667 2.88,0.973333 4.4,1.64 1.06333,0.438667 2.025,0.808 2.885,1.108 0.46132,0.161798 0.92645,0.312508 1.395,0.452 0.46765,0.137584 0.94318,0.246783 1.424,0.327 0.79857,0.131344 1.6067,0.195901 2.416,0.193 0.92533,0 1.78733,-0.07933 2.586,-0.238 0.86001,-0.163491 1.69281,-0.446925 2.474,-0.842 0.42771,-0.222358 0.83819,-0.4764 1.228,-0.76 0.34944,-0.254866 0.68712,-0.525478 1.012,-0.811 0.16971,0.299067 0.36369,0.583691 0.58,0.851 0.54311,0.677863 1.2619,1.193607 2.078,1.491 0.60461,0.211593 1.24148,0.316159 1.882,0.309 1.47645,0.0025 2.88976,-0.598665 3.912,-1.664 0.50853,-0.510518 0.95435,-1.079873 1.328,-1.696 0.37333,1.04 0.92667,1.86 1.66,2.46 0.73333,0.6 1.54,0.9 2.42,0.9 0.75267,0 1.52233,-0.201 2.309,-0.603 0.43983,-0.228015 0.85848,-0.494735 1.251,-0.797 0.46908,-0.357612 0.92029,-0.738071 1.352,-1.14 0.46483,-0.434481 0.91026,-0.889256 1.335,-1.363 0.13257,0.280363 0.27703,0.554946 0.433,0.823 0.76355,1.335892 2.01525,2.323769 3.492,2.756 0.77596,0.223795 1.58046,0.332949 2.388,0.324 1.00688,0.0026 2.00108,-0.224539 2.907,-0.664 0.72858,-0.357824 1.40019,-0.821515 1.993,-1.376 0.7662,-0.705081 1.41205,-1.530625 1.912,-2.444 0.49804,-0.918092 0.8707,-1.898834 1.108,-2.916 0.58981,-0.02409 1.17834,-0.07314 1.764,-0.147 1.19732,-0.146638 2.37584,-0.419146 3.516,-0.813 0.4,-0.133333 0.69333,-0.38 0.88,-0.74 0.004,-0.0086 0.009,-0.0173 0.013,-0.026 0.12267,-0.246667 0.203,-0.562667 0.241,-0.948 0.0179,-0.188126 0.0266,-0.377021 0.026,-0.566 1.6e-4,-0.07804 -0.002,-0.15607 -0.006,-0.234 -0.0107,-0.193333 -0.0353,-0.373333 -0.074,-0.54 -0.0419,-0.190142 -0.10916,-0.373787 -0.2,-0.546 -0.0385,-0.07294 -0.084,-0.141935 -0.136,-0.206 -0.15966,-0.203232 -0.40561,-0.319539 -0.664,-0.314 -0.0133,-1.07e-4 -0.0267,-1.07e-4 -0.04,0 -0.19667,0.0033 -0.37,0.03 -0.52,0.08 -0.39928,0.104586 -0.80034,0.202267 -1.203,0.293 -0.624,0.140667 -1.21267,0.253333 -1.766,0.338 -0.50094,0.07853 -1.00509,0.134921 -1.511,0.169 -0.0481,-0.453215 -0.12389,-0.903058 -0.227,-1.347 -0.29719,-1.333539 -0.90462,-2.578215 -1.773,-3.633 -1.12,-1.346667 -2.57333,-2.086667 -4.36,-2.22 0.25769,-0.318439 0.51006,-0.641151 0.757,-0.968 1.52867,-2.023333 2.64967,-3.967333 3.363,-5.832 0.0257,-0.06753 0.051,-0.135199 0.076,-0.203 0.76231,-2.0192082 1.15654,-4.1587 1.164,-6.317 0,-0.788 -0.082,-1.5066667 -0.246,-2.156 -0.16799,-0.6966837 -0.46439,-1.3559451 -0.874,-1.944 -0.10446,-0.147953 -0.21766,-0.2895381 -0.339,-0.424 -0.65986,-0.75378285 -1.61942,-1.17699626 -2.621,-1.156 -0.96484,-7.2224341e-4 -1.9107,0.26804026 -2.731,0.776 -1.146,0.6946667 -2.189,1.856 -3.129,3.484 -1.64,2.84 -2.88667,6.28 -3.74,10.32 -0.37394,1.755514 -0.67321,3.526107 -0.897,5.307 -0.24891,1.961271 -0.37682,3.936007 -0.383,5.913 9e-5,0.07733 4.2e-4,0.154668 0.001,0.232 0.007,1.158667 0.07,2.234 0.188,3.226 0.0213,0.190708 0.0456,0.381065 0.073,0.571 -0.0333,0.03904 -0.0666,0.07804 -0.1,0.117 -0.628,0.732 -1.17933,1.340667 -1.654,1.826 -0.21623,0.222537 -0.43899,0.438632 -0.668,0.648 -0.10271,0.09334 -0.20809,0.183715 -0.316,0.271 -0.35933,0.29 -0.68967,0.491 -0.991,0.603 -0.16994,0.06677 -0.35044,0.102669 -0.533,0.106 -0.0294,6.3e-5 -0.0587,-9.38e-4 -0.088,-0.003 -0.27084,-0.01554 -0.52236,-0.145297 -0.692,-0.357 -0.0292,-0.03502 -0.0562,-0.07175 -0.081,-0.11 -0.0847,-0.13 -0.14467,-0.28 -0.18,-0.45 -0.0268,-0.131633 -0.0398,-0.265679 -0.039,-0.4 -2e-5,-0.04267 3.1e-4,-0.08534 0.001,-0.128 0.0153,-0.914667 0.191,-2.317333 0.527,-4.208 0.12332,-0.689376 0.25399,-1.377415 0.392,-2.064 0.0252,-0.132292 0.0502,-0.264626 0.075,-0.397 0.28,-1.502 0.448,-2.571 0.504,-3.207 0.0126,-0.131643 0.0196,-0.263762 0.021,-0.396 -5e-5,-0.019 -3.9e-4,-0.03801 -0.001,-0.057 -0.0207,-0.716667 -0.44333,-1.146667 -1.268,-1.29 -0.2284,-0.0373 -0.45958,-0.05504 -0.691,-0.053 -0.0857,-6e-5 -0.17135,9.4e-4 -0.257,0.003 -0.50444,0.01123 -1.00712,0.06374 -1.503,0.157 -0.0204,-0.09013 -0.0428,-0.179817 -0.067,-0.269 -0.078,-0.286667 -0.166,-0.520667 -0.264,-0.702 -0.0468,-0.0891 -0.10347,-0.17263 -0.169,-0.249 -0.0443,-0.04996 -0.0955,-0.0934 -0.152,-0.129 -0.22267,-0.140667 -0.56533,-0.211 -1.028,-0.211 -0.84077,-0.0014 -1.67702,0.12301 -2.481,0.369 -0.98045,0.307562 -1.9052,0.770445 -2.739,1.371 -1.64,1.16 -2.95333,2.693333 -3.94,4.6 -0.89393,1.710118 -1.39607,3.597748 -1.47,5.526 -0.49073,0.390359 -1.02414,0.723822 -1.59,0.994 -1.10667,0.52 -2.43333,0.78 -3.98,0.78 -0.35467,0 -0.74033,-0.02667 -1.157,-0.08 -0.32276,-0.04213 -0.64396,-0.09549 -0.963,-0.16 -0.20704,-0.04154 -0.41371,-0.08488 -0.62,-0.13 -0.73667,-0.161333 -1.67667,-0.384667 -2.82,-0.67 -1.68,-0.42 -3.17633,-0.765333 -4.489,-1.036 -0.63495,-0.131841 -1.27204,-0.253191 -1.911,-0.364 0.21333,-0.933333 0.38667,-2.04 0.52,-3.32 l 0.92,-9.08 c 0.0141,-0.132103 0.0291,-0.264107 0.045,-0.396 0.23067,-1.925333 0.62933,-3.536333 1.196,-4.833 0.30345,-0.717055 0.70714,-1.387407 1.199,-1.991 0.81743,-0.9863892 1.9237,-1.6914936 3.163,-2.016 0.74295,-0.1957533 1.50873,-0.2912666 2.277,-0.284 1.33333,0 2.32667,0.3266667 2.98,0.98 0.65333,0.6533333 0.98,1.54 0.98,2.66 -9e-5,0.06401 -0.001,0.128017 -0.003,0.192 -0.007,0.274667 -0.0317,0.566 -0.073,0.874 -0.0424,0.313364 -0.0971,0.624939 -0.164,0.934 -0.008,0.04631 -0.0154,0.09265 -0.023,0.139 -0.068,0.422 -0.11067,0.748333 -0.128,0.979 -0.005,0.0672 -0.008,0.134579 -0.009,0.202 0,0.666667 0.21333,1.18 0.64,1.54 0.10246,0.08626 0.21335,0.16198 0.331,0.226 0.38333,0.209333 0.85967,0.314 1.429,0.314 0.66562,0.01425 1.31059,-0.231468 1.798,-0.685 0.25314,-0.238415 0.46949,-0.513073 0.642,-0.815 0.16108,-0.276372 0.29729,-0.566513 0.407,-0.867 0.16733,-0.454667 0.29033,-0.957 0.369,-1.507 0.0716,-0.51889 0.10635,-1.042199 0.104,-1.566 0,-2.4 -0.77333,-4.3466667 -2.32,-5.84 -1.54667,-1.4933333 -3.76,-2.24 -6.64,-2.24 -0.055,6.51e-5 -0.11,3.984e-4 -0.165,10e-4 -1.64556,0.00737 -3.27881,0.2840239 -4.835,0.819 -1.57333,0.5466667 -2.97333,1.3533333 -4.2,2.42 -1.41333,1.2266667 -2.52,2.7066667 -3.32,4.44 -0.8,1.733333 -1.28,3.933333 -1.44,6.6 l -0.72,11.64 h -0.52 c -1.22696,0.0038 -2.06186,0.09192 -2.858,0.338001 -0.01,0.0023 -0.02,0.0047 -0.03,0.007 -0.75349,0.195063 -1.46787,0.518092 -2.112,0.955 -0.24297,0.166581 -0.47236,0.352163 -0.686,0.555 -0.52473,0.474126 -0.89913,1.09153 -1.077,1.776 -0.0388,0.01675 -0.0778,0.03309 -0.117,0.049 0.0118,-0.106577 0.0228,-0.213247 0.033,-0.32 0.0313,-0.329333 0.047,-0.596 0.047,-0.8 0,-0.933333 -0.22,-1.793333 -0.66,-2.58 -0.28867,-0.516667 -0.66633,-1.104667 -1.133,-1.764 -0.26253,-0.37005 -0.53158,-0.73544 -0.807,-1.096 -0.58667,-0.72 -1.02,-1.32 -1.3,-1.8 -0.0471,-0.08049 -0.0914,-0.162535 -0.133,-0.246 -0.19133,-0.385333 -0.287,-0.743333 -0.287,-1.074 -10e-6,-0.004 -10e-6,-0.008 0,-0.012 0.002,-0.455333 0.11533,-0.979 0.34,-1.571 0.11228,-0.291831 0.23911,-0.577856 0.38,-0.857 0.0348,-0.06442 0.0684,-0.12943 0.101,-0.195 0.13556,-0.272083 0.24893,-0.554668 0.339,-0.845 0.0241,-0.07792 0.0468,-0.156262 0.068,-0.235 0.04,-0.148667 0.067,-0.274667 0.081,-0.378 0.007,-0.0487 0.0106,-0.09781 0.011,-0.147 0.007,-0.190869 -0.0729,-0.374605 -0.217,-0.5 -0.0671,-0.05736 -0.1422,-0.104531 -0.223,-0.14 -0.0876,-0.03845 -0.17872,-0.06858 -0.272,-0.09 -0.30467,-0.07333 -0.734,-0.11 -1.288,-0.11 -1.6,0 -2.65333,0.586667 -3.16,1.76 -0.58667,1.386667 -1.18667,2.726667 -1.8,4.02 l -0.02,0.042 c -0.604667,1.273333 -1.131333,2.292667 -1.58,3.058 -0.03444,0.05415 -0.06911,0.108145 -0.104,0.162 -0.500667,0.772 -1.149333,1.675667 -1.946,2.711 -0.342954,0.444763 -0.690304,0.886117 -1.042,1.324 -0.05674,0.05858 -0.113744,0.116918 -0.171,0.175 -0.218839,0.223022 -0.444617,0.439128 -0.677,0.648 -0.07404,0.06583 -0.149387,0.130181 -0.226,0.193 -0.638,0.524667 -1.196,0.787 -1.674,0.787 -0.773333,0 -1.16,-0.533333 -1.16,-1.6 6.35e-4,-0.120475 0.0056,-0.240888 0.015,-0.361 0.04533,-0.62 0.195,-1.563333 0.449,-2.83 0.09463,-0.470507 0.193296,-0.940191 0.296,-1.409 0.04192,-0.194874 0.08326,-0.389875 0.124,-0.585 0.504,-2.406667 0.756,-4.091667 0.756,-5.055 0,-1.347333 -0.523667,-2.171 -1.571,-2.471 -0.335353,-0.09054 -0.681676,-0.133955 -1.029,-0.129 -0.583973,0.0064 -1.161589,0.12205 -1.703,0.341 -0.48,0.186667 -0.971,0.450333 -1.473,0.791 -0.487721,0.335109 -0.950287,0.705429 -1.384,1.108 -0.0093,0.0083 -0.01868,0.01665 -0.028,0.025 -1.108,1.025333 -2.147667,2.465667 -3.119,4.321 -0.475757,0.916781 -0.907253,1.855861 -1.293,2.814 0.08,-0.48 0.226667,-1.2 0.44,-2.16 0.03617,-0.160221 0.07184,-0.320555 0.107,-0.481 0.435333,-1.982 0.653,-3.368333 0.653,-4.159 0,-0.88 -0.193333,-1.533333 -0.58,-1.96 -0.01304,-0.0146 -0.02638,-0.02894 -0.04,-0.043 -0.392,-0.398 -1.038667,-0.597 -1.94,-0.597 -0.234776,3.98e-4 -0.469045,0.02182 -0.7,0.064 -0.394667,0.07133 -0.799667,0.202 -1.215,0.392 -0.370644,0.172407 -0.726796,0.374393 -1.065,0.604 -0.255367,0.172023 -0.501072,0.35797 -0.736,0.557 -0.796667,0.672667 -1.578,1.560333 -2.344,2.663 -0.07087,0.101845 -0.140542,0.204519 -0.209,0.308 -0.482667,0.731333 -0.931333,1.539667 -1.346,2.425 -0.385767,0.83058 -0.727899,1.680738 -1.025,2.547 0.03148,-0.348452 0.06749,-0.696482 0.108,-1.044 0.03867,-0.328667 0.07967,-0.638667 0.123,-0.93 0.04807,-0.32339 0.104426,-0.645496 0.169,-0.966 0.05313,-0.260132 0.108463,-0.519808 0.166,-0.779 0.06,-0.273333 0.125667,-0.56 0.197,-0.86 0.08977,-0.380951 0.182106,-0.761293 0.277,-1.141 0.06931,-0.258149 0.136642,-0.516823 0.202,-0.776 0.194,-0.772 0.317,-1.354667 0.369,-1.748 0.01719,-0.117933 0.02688,-0.236839 0.029,-0.356 2.13e-4,-0.06516 -0.0035,-0.130276 -0.011,-0.195 -0.01133,-0.09467 -0.03133,-0.179333 -0.06,-0.254 -0.04626,-0.128386 -0.133843,-0.237776 -0.249,-0.311 -0.05272,-0.03243 -0.108689,-0.05925 -0.167,-0.08 -0.220667,-0.08 -0.538333,-0.12 -0.953,-0.12 -0.586,0 -1.094333,0.06333 -1.525,0.19 -0.274224,0.07769 -0.535402,0.19564 -0.775,0.35 -0.350321,0.234425 -0.639939,0.548721 -0.845,0.917 -0.140111,0.247892 -0.252456,0.510479 -0.335,0.783 -0.07704,0.243735 -0.151051,0.488421 -0.222,0.734 -0.450442,1.578258 -0.781707,3.18812 -0.991,4.816 -0.09279,0.06818 -0.187151,0.134193 -0.283,0.198 -0.247333,0.163333 -0.481667,0.289 -0.703,0.377 -0.228346,0.09687 -0.473018,0.149469 -0.721,0.155 -0.01334,-1.41e-4 -0.02667,-4.74e-4 -0.04,-10e-4 -0.64,-0.01867 -0.96,-0.485 -0.96,-1.399 0.0011,-0.07352 0.0057,-0.146939 0.014,-0.22 0.02733,-0.262 0.093,-0.669333 0.197,-1.222 0.03536,-0.186189 0.07169,-0.372191 0.109,-0.558 0.24,-1.333333 0.36,-2.173333 0.36,-2.52 0,-1.347333 -0.523667,-2.171 -1.571,-2.471 -0.335353,-0.09054 -0.681676,-0.133955 -1.029,-0.129 -0.88,0 -1.846667,0.306667 -2.9,0.92 -0.325207,0.190962 -0.635734,0.40589 -0.929,0.643 -0.753333,0.605333 -1.517,1.417667 -2.291,2.437 -1.093333,1.44 -2.08,3.306667 -2.96,5.6 0.03155,-0.349112 0.06756,-0.697807 0.108,-1.046 0.03867,-0.33 0.07967,-0.642 0.123,-0.936 0.04829,-0.327339 0.104638,-0.653438 0.169,-0.978 0.1,-0.5 0.221,-1.052333 0.363,-1.657 0.08955,-0.38167 0.181883,-0.76268 0.277,-1.143 0.06931,-0.258149 0.136642,-0.516823 0.202,-0.776 0.194,-0.772 0.317,-1.354667 0.369,-1.748 0.01719,-0.117933 0.02688,-0.236839 0.029,-0.356 2.13e-4,-0.06516 -0.0035,-0.130276 -0.011,-0.195 -0.01133,-0.09467 -0.03133,-0.179333 -0.06,-0.254 -0.04626,-0.128386 -0.133843,-0.237776 -0.249,-0.311 -0.05272,-0.03243 -0.108689,-0.05925 -0.167,-0.08 -0.220667,-0.08 -0.538333,-0.12 -0.953,-0.12 -0.586,0 -1.094333,0.06333 -1.525,0.19 -0.274224,0.07769 -0.535402,0.19564 -0.775,0.35 -0.350321,0.234425 -0.639939,0.548721 -0.845,0.917 -0.140111,0.247892 -0.252456,0.510479 -0.335,0.783 -0.07704,0.243735 -0.151051,0.488421 -0.222,0.734 -0.354659,1.242982 -0.635483,2.505854 -0.841,3.782 -0.551785,0.122967 -1.10741,0.228022 -1.666,0.315 -0.500935,0.07853 -1.005093,0.134921 -1.511,0.169 -0.03271,-0.316854 -0.07908,-0.632148 -0.139,-0.945 -0.280974,-1.571515 -0.98682,-3.03612 -2.041,-4.235 -0.68845,-0.792361 -1.572967,-1.38997 -2.565,-1.733 -0.752476,-0.251465 -1.541663,-0.375505 -2.335,-0.367 -1.653333,0 -3.16,0.446667 -4.52,1.34 -1.36,0.893333 -2.426667,2.133333 -3.2,3.72 -0.370343,0.764115 -0.651204,1.568443 -0.837,2.397 -0.220195,0.992447 -0.328537,2.006434 -0.323,3.023 -1.13e-4,0.058 2.2e-4,0.116003 10e-4,0.174 0.01061,1.375564 0.310079,2.733556 0.879,3.986 0.586667,1.28 1.446667,2.306667 2.58,3.08 1.133333,0.773333 2.5,1.16 4.1,1.16 0.895752,0.0046 1.784544,-0.157479 2.621,-0.478 0.907563,-0.35832 1.741194,-0.881077 2.459,-1.542 0.79688,-0.72022 1.460981,-1.574887 1.962,-2.525 0.471762,-0.901122 0.820858,-1.861305 1.038,-2.855 0.58981,-0.02409 1.178337,-0.07314 1.764,-0.147001 z M 34.52,9.041 33.12,8.921 c -1.573333,-0.1333333 -3.14,-0.24 -4.7,-0.32 -1.56,-0.08 -3.193333,-0.12 -4.9,-0.12 h -1.8 c -0.32,3.946667 -0.653333,7.546667 -1,10.8 l 6.88,-0.12 c 0.21366,-9.94e-4 0.427243,0.0084 0.64,0.028 0.638,0.06267 1.084667,0.226667 1.34,0.492 0.227112,0.239038 0.381764,0.537592 0.446,0.861 0.03703,0.177248 0.05514,0.357928 0.054,0.539 0.0026,0.303743 -0.03199,0.606663 -0.103,0.902 -0.110466,0.470322 -0.352167,0.899627 -0.697,1.238 -0.313248,0.299785 -0.69657,0.516371 -1.115,0.63 -0.269333,0.078 -0.565333,0.125667 -0.888,0.143 -0.09226,0.0048 -0.184621,0.0071 -0.277,0.007 h -6.84 l -0.24,1.72 c -0.56,4.4 -1.753333,7.533333 -3.58,9.4 -1.826667,1.866667 -4.34,2.8 -7.54,2.8 C 7.4397197,37.931262 6.089515,37.687065 4.819,37.201 4.471326,37.066061 4.1311673,36.912505 3.8,36.741 3.239743,36.454698 2.7051116,36.120804 2.202,35.743 1.6153333,35.297667 1.1233333,34.813 0.726,34.289 0.62539372,34.156774 0.52998774,34.02067 0.44,33.881 0.14666667,33.427667 0,32.881 0,32.241 c 0,-0.64 0.15333333,-1.2 0.46,-1.68 0.0830407,-0.132413 0.18138449,-0.254588 0.293,-0.364 0.22309895,-0.227553 0.5283256,-0.355842 0.847,-0.356 0.2304702,0.0015 0.4575661,0.05551 0.664,0.158 0.09614,0.04662 0.1884292,0.100786 0.276,0.162 0.2506667,0.174 0.5593333,0.482 0.926,0.924 0.086166,0.104119 0.1708414,0.209463 0.254,0.316 1.28,1.68 2.8666667,2.52 4.76,2.52 1.3391528,0.01674 2.621712,-0.539222 3.525,-1.528 0.102212,-0.107159 0.200606,-0.217895 0.295,-0.332 1.026667,-1.24 1.686667,-3.193333 1.98,-5.86 l 0.24,-2.2 H 12.6 c -0.613333,0 -1.14,-0.173333 -1.58,-0.52 -0.361194,-0.282664 -0.592163,-0.699851 -0.64,-1.156 -0.01372,-0.107449 -0.0204,-0.21568 -0.02,-0.324 0,-0.826667 0.213333,-1.46 0.64,-1.9 0.243805,-0.247127 0.546723,-0.427845 0.88,-0.525 0.218,-0.06733 0.459,-0.109667 0.723,-0.127 0.09222,-0.0057 0.184605,-0.0083 0.277,-0.008 0.746667,0 1.48,-0.01333 2.2,-0.04 0.129046,-1.187767 0.252714,-2.376113 0.371,-3.565 0.106667,-1.063333 0.215667,-2.188 0.327,-3.374 0.116969,-1.246727 0.230969,-2.4937303 0.342,-3.741 -2.88,0.2666667 -4.906667,0.7333333 -6.08,1.4 -1.1113333,0.631333 -1.6963333,1.549667 -1.755,2.755 -0.00333,0.06828 -0.005,0.136636 -0.005,0.205 0,0.906667 0.2666667,1.773333 0.8,2.6 0.06429,0.09482 0.1179469,0.196435 0.16,0.303 0.052319,0.132829 0.079448,0.274239 0.08,0.417 -0.00162,0.296354 -0.1066634,0.582843 -0.297,0.81 -0.1266667,0.159333 -0.2943333,0.309333 -0.503,0.45 -0.5333333,0.36 -1.1333333,0.54 -1.8,0.54 C 6,18.201 5.3866667,17.987667 4.88,17.561 4.7766732,17.471904 4.6846541,17.370481 4.606,17.259 4.384,16.954333 4.1686667,16.508333 3.96,15.921 3.7646432,15.362637 3.6351007,14.783388 3.574,14.195 3.5373328,13.851562 3.5193063,13.506389 3.52,13.161 3.4953638,11.892583 3.7962732,10.639023 4.394,9.52 5.2193333,8.022 6.628,6.8356667 8.62,5.961 9.7971059,5.4566835 11.017853,5.061037 12.267,4.779 14.854333,4.173 17.988333,3.8273333 21.669,3.742 22.285898,3.727855 22.90294,3.720855 23.52,3.721 c 1.882206,-0.00245 3.764163,0.043567 5.644,0.138 2.287333,0.118 4.406,0.312 6.356,0.582 0.188924,0.025916 0.37598,0.063995 0.56,0.114 0.404,0.1126667 0.708667,0.2763333 0.914,0.491 0.02304,0.024068 0.04506,0.04909 0.066,0.075 0.272667,0.3373333 0.412667,0.7756667 0.42,1.315 1.02e-4,0.015 1.02e-4,0.03 0,0.045 0.0051,0.3477923 -0.03899,0.6945595 -0.131,1.03 -0.320667,1.1013333 -1.230667,1.6133333 -2.73,1.536 C 34.58599,9.04526 34.55298,9.04326 34.52,9.041 Z m 134.56,-5.08 c -0.17066,0.00803 -0.3334,0.074393 -0.461,0.188 -0.33,0.2633333 -0.67633,0.8023333 -1.039,1.617 -0.084,0.1899555 -0.16406,0.3816649 -0.24,0.575 -0.2125,0.5434211 -0.40397,1.0948304 -0.574,1.653 -0.384,1.2486667 -0.749,2.731667 -1.095,4.449 -0.024,0.119274 -0.0476,0.238607 -0.071,0.358 -0.31126,1.600965 -0.56907,3.211859 -0.773,4.83 -0.17258,1.360006 -0.31495,2.723675 -0.427,4.09 0.62712,-1.147728 1.23752,-2.304517 1.831,-3.47 0.584,-1.149333 1.114,-2.240333 1.59,-3.273 0.27478,-0.595208 0.54114,-1.194267 0.799,-1.797 0.37013,-0.858005 0.68902,-1.737217 0.955,-2.633 0.26067,-0.89 0.43967,-1.7376667 0.537,-2.543 0.0575,-0.4658041 0.0869,-0.9346561 0.088,-1.404 8.1e-4,-0.2359198 -0.008,-0.4717766 -0.026,-0.707 -0.0373,-0.462 -0.11433,-0.845 -0.231,-1.149 -0.0135,-0.035015 -0.0278,-0.069692 -0.043,-0.104 -0.0445,-0.1035845 -0.0987,-0.2026984 -0.162,-0.296 -0.0693,-0.1 -0.14533,-0.1803333 -0.228,-0.241 -0.12366,-0.093756 -0.27482,-0.1440276 -0.43,-0.143 z m -19.84,26 1.48,-7.36 c -0.93595,0.0248 -1.84299,0.32958 -2.604,0.875 -0.17183,0.119742 -0.33738,0.248245 -0.496,0.385 -0.6544,0.568652 -1.21053,1.241347 -1.646,1.991 -0.23231,0.395263 -0.43745,0.805879 -0.614,1.229 -0.56,1.333333 -0.84,2.746667 -0.84,4.24 -8.7e-4,0.21631 0.0125,0.432444 0.04,0.647 0.0667,0.503333 0.218,0.898333 0.454,1.185 0.002,0.0027 0.004,0.0053 0.006,0.008 0.27836,0.335887 0.67946,0.546523 1.114,0.585 0.0883,0.01004 0.17712,0.01505 0.266,0.015 0.58667,0 1.14667,-0.346667 1.68,-1.04 0.53333,-0.693333 0.92,-1.613333 1.16,-2.76 z m 18.84,-7.04 h -0.12 c -0.8318,-0.0026 -1.62712,0.341213 -2.195,0.949 -0.2018,0.206533 -0.38423,0.43114 -0.545,0.671 -0.35769,0.537884 -0.62395,1.131224 -0.788,1.756 -0.208,0.757333 -0.312,1.618667 -0.312,2.584 0,1.52 0.28667,2.68 0.86,3.48 0.43467,0.606667 0.927,0.983333 1.477,1.13 0.17717,0.04694 0.35972,0.07047 0.543,0.07 0.66931,-3.64e-4 1.31611,-0.241759 1.822,-0.68 0.13384,-0.111495 0.26011,-0.23176 0.378,-0.36 0.30445,-0.336029 0.55386,-0.718079 0.739,-1.132 0.16,-0.348667 0.29267,-0.736667 0.398,-1.164 0.057,-0.232675 0.1047,-0.467528 0.143,-0.704 -0.82667,-0.56 -1.46,-1.293333 -1.9,-2.2 -0.44,-0.906667 -0.66,-1.866667 -0.66,-2.88 0,-0.373333 0.0533,-0.88 0.16,-1.52 z m -129.72,0.24 h -0.2 c -0.84151,-0.0038 -1.644569,0.35204 -2.207,0.978 -0.16562,0.175063 -0.317095,0.362986 -0.453,0.562 -0.706667,1.026667 -1.06,2.473333 -1.06,4.34 -0.0021,0.421066 0.02533,0.84176 0.082,1.259 0.122,0.866 0.381333,1.566333 0.778,2.101 0.164264,0.225297 0.354585,0.430387 0.567,0.611 0.402046,0.352623 0.918227,0.547656 1.453,0.549 0.853333,0 1.593333,-0.346667 2.22,-1.04 0.496667,-0.549333 0.863333,-1.291 1.1,-2.225 0.0645,-0.255902 0.117883,-0.514477 0.16,-0.775 -0.826667,-0.56 -1.46,-1.293333 -1.9,-2.2 -0.44,-0.906667 -0.66,-1.866667 -0.66,-2.88 0,-0.426667 0.04,-0.853333 0.12,-1.28 z"
       vector-effect="non-scaling-stroke"
       id="path2"
       sodipodi:nodetypes="cccccccccccccccccccccccccccccccccccccccccccccccccccccccccccccsccccccccccccccccccccccccccccccccccccccccccccccccccccccccccccccccccccccccccccccsscccccccccccccccccccsccccccccccscccccccccccccccccccccccccccccccccccccccccccccccscccccccccccccscccccccccccccccsccccscccccccccsscccccscccccccccccsccccccccccscccccsccccccccccsccccccccccccccccccccccccsccccccccccccccsccccccccccccccccccsccccccccccccscccccsccccccccssccccccccccccccsccccccsccccccccccccscccccccccccccccccccscccccccccccccccccccccccccccccccccccccccccccccccccccccsccccccsccccccccsscccccccccccccssc" />
  </g>
</svg>
