<svg width="200.072" height="41.911" viewBox="0 0 200.072 41.911" xmlns="http://www.w3.org/2000/svg"><g id="svgGroup" stroke-linecap="round" fill-rule="evenodd" font-size="9pt" stroke="#52525B" stroke-width="0.01mm" fill="#52525B" style="stroke:#52525B;stroke-width:0.01mm;fill:#52525B"><path d="M 22.472 22.561 A 1.015 1.015 0 0 0 22.458 22.561 Q 22.161 22.565 21.722 22.741 A 18.066 18.066 0 0 1 21.141 22.975 Q 20.245 23.319 19.205 23.616 A 32.872 32.872 0 0 1 16.967 24.166 A 29.145 29.145 0 0 1 15.092 24.499 A 23.892 23.892 0 0 1 11.702 24.751 A 26.642 26.642 0 0 1 10.589 24.728 Q 7.654 24.605 6.182 23.806 A 4.304 4.304 0 0 1 5.742 23.533 Q 4.442 22.609 4.442 21.001 A 3.214 3.214 0 0 1 4.62 19.941 A 3.736 3.736 0 0 1 5.177 18.916 A 3.603 3.603 0 0 1 5.68 18.378 Q 6.052 18.051 6.55 17.773 A 7.737 7.737 0 0 1 7.547 17.311 A 8.276 8.276 0 0 1 8.374 17.043 Q 9.093 16.85 9.941 16.744 A 17.357 17.357 0 0 1 11.672 16.621 Q 13.472 16.591 13.472 14.611 A 2.847 2.847 0 0 0 13.471 14.564 Q 13.465 14.216 13.374 13.983 A 0.785 0.785 0 0 0 13.202 13.711 A 0.69 0.69 0 0 0 13.136 13.653 Q 12.941 13.502 12.595 13.443 A 2.685 2.685 0 0 0 12.272 13.411 A 14.481 14.481 0 0 1 11.815 13.388 Q 9.558 13.238 8.507 12.406 A 3.684 3.684 0 0 1 8.268 12.199 A 2.798 2.798 0 0 1 7.352 10.081 A 4.304 4.304 0 0 1 7.353 9.979 Q 7.377 8.955 7.891 8.172 A 3.751 3.751 0 0 1 8.882 7.171 Q 9.886 6.462 11.329 6.218 A 9.82 9.82 0 0 1 12.962 6.091 A 9.723 9.723 0 0 1 13.322 6.097 Q 14.318 6.134 14.977 6.381 A 2.345 2.345 0 0 1 15.662 6.766 A 2.2 2.2 0 0 1 16.297 7.604 A 2.333 2.333 0 0 1 16.472 8.521 A 2.409 2.409 0 0 1 16.469 8.629 Q 16.456 8.91 16.384 9.441 A 29.328 29.328 0 0 1 16.322 9.871 A 5.375 5.375 0 0 0 16.214 10.413 A 4.015 4.015 0 0 0 16.172 10.981 A 1.893 1.893 0 0 0 16.214 11.393 A 1.206 1.206 0 0 0 16.652 12.106 A 1.519 1.519 0 0 0 16.937 12.281 Q 17.358 12.481 17.972 12.481 A 2.594 2.594 0 0 0 18.021 12.48 Q 19.185 12.458 19.817 11.386 A 3.947 3.947 0 0 0 20.115 10.754 Q 20.299 10.257 20.385 9.658 A 7.982 7.982 0 0 0 20.462 8.521 A 6.702 6.702 0 0 0 20.45 8.128 A 5.178 5.178 0 0 0 18.602 4.366 Q 17.294 3.237 15.066 2.902 A 13.781 13.781 0 0 0 13.022 2.761 Q 10.262 2.761 7.952 3.661 A 10.503 10.503 0 0 0 6.663 4.262 A 8.18 8.18 0 0 0 4.277 6.226 Q 2.912 7.891 2.912 10.051 Q 2.912 11.641 3.857 12.931 A 4.517 4.517 0 0 0 5.181 14.135 A 5.76 5.76 0 0 0 6.572 14.731 A 15.124 15.124 0 0 0 5.665 14.987 Q 3.09 15.804 1.667 17.356 Q 0.002 19.171 0.002 21.751 Q 0.002 23.641 1.247 25.141 A 5.813 5.813 0 0 0 1.971 25.867 Q 2.602 26.401 3.443 26.832 A 11.574 11.574 0 0 0 5.042 27.496 A 13.556 13.556 0 0 0 6.304 27.849 Q 8.477 28.351 11.372 28.351 Q 14.102 28.351 16.922 27.856 Q 18.684 27.546 20.036 27.102 A 12.656 12.656 0 0 0 21.512 26.521 Q 22.151 26.21 22.563 25.854 A 2.535 2.535 0 0 0 22.997 25.381 A 2.371 2.371 0 0 0 23.348 24.586 A 3.105 3.105 0 0 0 23.432 23.851 A 2.554 2.554 0 0 0 23.429 23.732 Q 23.419 23.524 23.375 23.347 A 1.348 1.348 0 0 0 23.192 22.921 A 0.765 0.765 0 0 0 22.773 22.603 A 1.011 1.011 0 0 0 22.472 22.561 Z" id="0" vector-effect="non-scaling-stroke"/><path d="M 21.617 27.151 A 2.537 2.537 0 0 0 21.839 27.597 Q 22.318 28.351 23.222 28.351 Q 23.672 28.351 24.006 28.234 A 1.34 1.34 0 0 0 24.587 27.856 A 1.76 1.76 0 0 0 24.782 27.578 Q 24.995 27.212 25.18 26.598 A 10.686 10.686 0 0 0 25.352 25.951 A 24.227 24.227 0 0 1 25.507 25.341 A 27.137 27.137 0 0 1 26.387 22.651 A 22.616 22.616 0 0 1 26.691 21.896 Q 26.947 21.295 27.21 20.785 A 11.196 11.196 0 0 1 27.722 19.891 A 7.841 7.841 0 0 1 27.831 19.723 Q 28.448 18.811 28.862 18.811 A 0.436 0.436 0 0 1 28.879 18.811 Q 29.129 18.821 29.179 19.121 A 1.034 1.034 0 0 1 29.192 19.291 A 4.634 4.634 0 0 1 29.187 19.489 Q 29.165 19.993 29.045 21.034 A 79.317 79.317 0 0 1 28.952 21.811 A 53.535 53.535 0 0 0 28.859 22.509 Q 28.722 23.603 28.675 24.389 A 12.347 12.347 0 0 0 28.652 25.111 Q 28.652 25.743 28.76 26.287 A 4.151 4.151 0 0 0 29.147 27.406 Q 29.431 27.948 29.878 28.179 A 1.618 1.618 0 0 0 30.632 28.351 Q 31.592 28.351 32.027 27.871 Q 32.354 27.51 32.621 26.606 A 10.847 10.847 0 0 0 32.792 25.951 Q 33.242 24.121 33.962 22.471 A 22.117 22.117 0 0 1 34.327 21.674 Q 34.594 21.123 34.862 20.66 A 10.272 10.272 0 0 1 35.402 19.816 Q 35.936 19.07 36.289 18.877 A 0.474 0.474 0 0 1 36.512 18.811 A 0.436 0.436 0 0 1 36.529 18.811 Q 36.779 18.821 36.829 19.121 A 1.034 1.034 0 0 1 36.842 19.291 A 3.034 3.034 0 0 1 36.84 19.374 Q 36.82 20.115 36.452 21.901 Q 36.032 24.061 36.032 24.901 A 6.352 6.352 0 0 0 36.058 25.492 Q 36.107 26.013 36.245 26.441 A 2.852 2.852 0 0 0 36.812 27.466 Q 37.342 28.067 38.218 28.26 A 4.209 4.209 0 0 0 39.122 28.351 Q 41.012 28.351 42.497 27.331 A 11.895 11.895 0 0 0 43.671 26.408 A 14.388 14.388 0 0 0 45.272 24.721 A 2.025 2.025 0 0 0 45.542 24.316 Q 45.842 23.73 45.842 22.861 A 3.024 3.024 0 0 0 45.829 22.576 Q 45.81 22.379 45.764 22.215 A 1.313 1.313 0 0 0 45.617 21.871 A 0.949 0.949 0 0 0 45.526 21.748 A 0.668 0.668 0 0 0 45.002 21.511 A 0.941 0.941 0 0 0 44.444 21.696 A 1.429 1.429 0 0 0 44.192 21.931 A 50.513 50.513 0 0 1 43.742 22.46 Q 43.034 23.284 42.494 23.83 A 11.212 11.212 0 0 1 41.987 24.316 Q 41.162 25.051 40.562 25.051 A 1.219 1.219 0 0 1 40.523 25.05 Q 39.692 25.024 39.692 23.851 Q 39.692 23.194 40.039 21.458 A 62.778 62.778 0 0 1 40.262 20.401 Q 40.762 18.082 40.883 16.848 A 7.079 7.079 0 0 0 40.922 16.171 A 2.873 2.873 0 0 0 40.838 15.448 Q 40.519 14.221 38.972 14.221 Q 37.382 14.221 35.552 15.901 A 7.292 7.292 0 0 0 35.531 15.92 Q 33.713 17.602 32.222 21.271 A 5.526 5.526 0 0 0 32.222 21.269 Q 32.312 20.729 32.552 19.651 A 58.719 58.719 0 0 0 32.632 19.29 Q 32.994 17.643 33.088 16.727 A 5.537 5.537 0 0 0 33.122 16.171 Q 33.122 15.606 32.98 15.207 A 1.482 1.482 0 0 0 32.687 14.701 Q 32.252 14.221 31.202 14.221 A 2.95 2.95 0 0 0 30.677 14.269 Q 29.86 14.416 28.967 15.016 Q 28.226 15.512 27.509 16.332 A 12.433 12.433 0 0 0 26.657 17.431 A 11.883 11.883 0 0 0 26.5 17.662 Q 25.957 18.484 25.491 19.481 A 19.73 19.73 0 0 0 24.722 21.391 A 30.332 30.332 0 0 1 24.802 20.608 Q 24.846 20.238 24.895 19.91 A 14.357 14.357 0 0 1 25.022 19.186 A 35.179 35.179 0 0 1 25.146 18.602 Q 25.295 17.926 25.502 17.101 A 39.39 39.39 0 0 0 25.653 16.519 Q 25.871 15.65 25.93 15.208 A 2.111 2.111 0 0 0 25.952 14.941 A 1.229 1.229 0 0 0 25.943 14.795 Q 25.931 14.688 25.898 14.604 A 0.462 0.462 0 0 0 25.712 14.371 A 0.664 0.664 0 0 0 25.587 14.311 Q 25.338 14.221 24.872 14.221 A 5.106 5.106 0 0 0 24.328 14.248 Q 24 14.283 23.728 14.363 A 2.161 2.161 0 0 0 23.147 14.626 A 1.996 1.996 0 0 0 22.513 15.313 A 2.905 2.905 0 0 0 22.262 15.901 Q 21.152 19.411 21.152 23.311 Q 21.152 25.951 21.617 27.151 Z" id="1" vector-effect="non-scaling-stroke"/><path d="M 59.956 21.748 A 0.668 0.668 0 0 0 59.432 21.511 A 0.941 0.941 0 0 0 58.874 21.696 A 1.429 1.429 0 0 0 58.622 21.931 Q 57.608 23.138 56.858 23.85 A 8.706 8.706 0 0 1 56.312 24.331 A 3.779 3.779 0 0 1 55.813 24.67 A 2.789 2.789 0 0 1 54.422 25.051 A 2.525 2.525 0 0 1 54.108 25.029 Q 53.939 25.008 53.745 24.965 A 6.185 6.185 0 0 1 53.372 24.871 Q 54.272 23.641 54.782 22.141 Q 55.292 20.641 55.292 19.051 Q 55.292 18.125 55.101 17.349 A 4.755 4.755 0 0 0 54.227 15.511 A 4.212 4.212 0 0 0 53.986 15.231 A 3.301 3.301 0 0 0 51.482 14.161 Q 50.432 14.161 49.502 14.686 A 4.557 4.557 0 0 0 49.015 15.005 Q 48.659 15.271 48.298 15.635 A 9.764 9.764 0 0 0 47.612 16.411 Q 47.582 16.051 47.582 15.301 A 3.547 3.547 0 0 0 47.567 15.09 Q 47.532 14.74 47.429 14.523 A 0.703 0.703 0 0 0 47.267 14.296 A 0.706 0.706 0 0 0 47.244 14.276 Q 47.041 14.109 46.678 14.061 A 2.463 2.463 0 0 0 46.352 14.041 Q 45.272 14.041 44.552 14.551 A 2.076 2.076 0 0 0 44.487 14.598 Q 43.833 15.1 43.862 15.931 A 55.937 55.937 0 0 1 43.881 16.618 Q 43.909 17.878 43.918 20.026 A 505.294 505.294 0 0 1 43.922 22.021 A 66.852 66.852 0 0 0 43.157 23.33 Q 40.912 27.281 39.752 30.646 Q 38.95 32.97 38.624 34.951 A 15.757 15.757 0 0 0 38.402 37.501 Q 38.402 38.697 38.662 39.593 A 4.138 4.138 0 0 0 39.182 40.741 A 2.486 2.486 0 0 0 40.609 41.785 A 3.535 3.535 0 0 0 41.582 41.911 Q 43.647 41.911 44.94 39.587 A 10.31 10.31 0 0 0 45.632 38.026 A 24.528 24.528 0 0 0 46.224 36.1 Q 46.672 34.408 46.97 32.425 A 50.339 50.339 0 0 0 47.402 28.351 A 6.28 6.28 0 0 0 49 28.118 A 7.166 7.166 0 0 0 50.972 27.211 A 3.204 3.204 0 0 0 52.275 28.132 A 3.603 3.603 0 0 0 53.552 28.351 Q 55.442 28.351 56.927 27.331 A 11.895 11.895 0 0 0 58.101 26.408 A 14.388 14.388 0 0 0 59.702 24.721 A 2.025 2.025 0 0 0 59.972 24.316 Q 60.272 23.73 60.272 22.861 A 3.024 3.024 0 0 0 60.259 22.576 Q 60.24 22.379 60.194 22.215 A 1.313 1.313 0 0 0 60.047 21.871 A 0.949 0.949 0 0 0 59.956 21.748 Z M 41.822 38.971 A 0.529 0.529 0 0 0 42.221 38.736 Q 42.771 38.062 43.172 35.446 Q 43.543 33.022 43.73 29.783 A 107.353 107.353 0 0 0 43.862 26.671 A 48.257 48.257 0 0 0 42.52 30.138 A 38.936 38.936 0 0 0 41.822 32.401 A 26.785 26.785 0 0 0 41.395 34.175 Q 41.072 35.77 41.072 36.991 A 6.606 6.606 0 0 0 41.091 37.521 Q 41.138 38.102 41.297 38.461 A 1.738 1.738 0 0 0 41.399 38.659 Q 41.523 38.865 41.667 38.934 A 0.35 0.35 0 0 0 41.822 38.971 Z M 47.552 25.471 A 3.629 3.629 0 0 0 48.898 24.852 A 4.912 4.912 0 0 0 49.547 24.286 A 6.479 6.479 0 0 0 50.627 22.773 A 8.024 8.024 0 0 0 51.002 21.946 Q 51.542 20.551 51.542 19.021 A 3.6 3.6 0 0 0 51.508 18.513 Q 51.471 18.254 51.393 18.045 A 1.465 1.465 0 0 0 51.182 17.656 A 1.139 1.139 0 0 0 50.354 17.197 A 1.45 1.45 0 0 0 50.222 17.191 A 1.405 1.405 0 0 0 49.541 17.392 Q 48.768 17.822 47.813 19.178 A 15.54 15.54 0 0 0 47.612 19.471 Q 47.582 20.791 47.582 23.341 Q 47.582 24.397 47.564 25.084 A 26.999 26.999 0 0 1 47.552 25.471 Z" id="2" vector-effect="non-scaling-stroke"/><path d="M 69.736 21.748 A 0.668 0.668 0 0 0 69.212 21.511 A 0.941 0.941 0 0 0 68.654 21.696 A 1.429 1.429 0 0 0 68.402 21.931 Q 67.367 23.16 66.595 23.869 A 7.823 7.823 0 0 1 66.032 24.346 A 3.43 3.43 0 0 1 65.259 24.789 A 3.621 3.621 0 0 1 63.872 25.051 A 2.18 2.18 0 0 1 63.704 25.044 A 1.59 1.59 0 0 1 62.612 24.526 Q 62.267 24.148 62.061 23.407 A 6.458 6.458 0 0 1 61.922 22.771 A 51.913 51.913 0 0 0 63.903 19.874 A 43.441 43.441 0 0 0 67.292 13.441 A 33.472 33.472 0 0 0 68.075 11.4 Q 68.646 9.746 68.945 8.249 A 15.825 15.825 0 0 0 69.272 5.161 A 15.033 15.033 0 0 0 69.272 5.136 Q 69.269 3.596 68.949 2.499 A 4.714 4.714 0 0 0 68.447 1.336 A 3.498 3.498 0 0 0 68.116 0.882 A 2.449 2.449 0 0 0 66.182 0.001 A 3.777 3.777 0 0 0 63.996 0.704 Q 63.345 1.153 62.753 1.891 A 10.169 10.169 0 0 0 61.787 3.361 A 20.831 20.831 0 0 0 61.664 3.587 Q 60.754 5.295 60.07 7.335 A 33.904 33.904 0 0 0 58.997 11.401 A 59.7 59.7 0 0 0 58.749 12.697 Q 58.407 14.61 58.232 16.343 A 33.993 33.993 0 0 0 58.052 19.741 Q 58.052 21.884 58.455 23.581 A 9.924 9.924 0 0 0 59.327 25.951 A 5.759 5.759 0 0 0 59.654 26.495 Q 60.92 28.351 63.242 28.351 A 7.027 7.027 0 0 0 63.249 28.351 A 6.007 6.007 0 0 0 66.677 27.331 Q 68.192 26.311 69.482 24.721 A 2.025 2.025 0 0 0 69.752 24.316 Q 70.052 23.73 70.052 22.861 A 3.024 3.024 0 0 0 70.039 22.576 Q 70.02 22.379 69.974 22.215 A 1.313 1.313 0 0 0 69.827 21.871 A 0.949 0.949 0 0 0 69.736 21.748 Z M 65.522 2.971 A 0.57 0.57 0 0 0 65.154 3.136 Q 64.607 3.613 63.962 5.461 A 29.186 29.186 0 0 0 63.339 7.497 Q 63.03 8.642 62.754 9.968 A 60.237 60.237 0 0 0 62.432 11.641 A 46.903 46.903 0 0 0 61.808 16.573 A 40.4 40.4 0 0 0 61.712 18.721 A 40.118 40.118 0 0 0 64.371 13.557 A 35.07 35.07 0 0 0 65.102 11.686 Q 66.227 8.537 66.347 5.88 A 13.915 13.915 0 0 0 66.362 5.251 A 9.453 9.453 0 0 0 66.337 4.534 Q 66.251 3.409 65.867 3.094 A 0.528 0.528 0 0 0 65.522 2.971 Z" id="3" vector-effect="non-scaling-stroke"/><path d="M 83.419 19.226 A 0.616 0.616 0 0 0 82.922 18.991 A 1.202 1.202 0 0 0 82.841 18.993 Q 82.762 18.999 82.673 19.014 A 2.368 2.368 0 0 0 82.502 19.051 Q 81.283 19.369 80.275 19.524 A 12.927 12.927 0 0 1 79.142 19.651 Q 78.902 17.341 77.507 15.766 A 4.494 4.494 0 0 0 75.583 14.466 A 5.344 5.344 0 0 0 73.832 14.191 Q 71.972 14.191 70.442 15.196 A 6.484 6.484 0 0 0 69.347 16.1 A 7.222 7.222 0 0 0 68.042 17.986 A 8.272 8.272 0 0 0 67.413 19.784 A 10.211 10.211 0 0 0 67.172 22.051 A 8.481 8.481 0 0 0 67.173 22.181 A 7.366 7.366 0 0 0 67.832 25.171 Q 68.492 26.611 69.767 27.481 A 4.821 4.821 0 0 0 71.318 28.172 A 6.212 6.212 0 0 0 72.842 28.351 A 5.416 5.416 0 0 0 74.807 27.992 A 5.946 5.946 0 0 0 76.652 26.836 A 6.876 6.876 0 0 0 78.123 24.942 A 8.554 8.554 0 0 0 78.902 22.801 A 15.692 15.692 0 0 0 80.224 22.691 A 12.867 12.867 0 0 0 82.862 22.081 A 1.081 1.081 0 0 0 83.545 21.453 Q 83.643 21.234 83.69 20.945 A 3.632 3.632 0 0 0 83.732 20.371 A 3.169 3.169 0 0 0 83.727 20.195 Q 83.7 19.712 83.522 19.381 A 0.948 0.948 0 0 0 83.419 19.226 Z M 73.862 17.371 L 73.712 17.371 Q 72.512 17.371 71.717 18.526 A 3.986 3.986 0 0 0 71.194 19.644 Q 71.041 20.154 70.974 20.766 A 9.319 9.319 0 0 0 70.922 21.781 Q 70.922 23.431 71.567 24.301 A 2.654 2.654 0 0 0 71.992 24.759 A 1.659 1.659 0 0 0 73.082 25.171 A 2.126 2.126 0 0 0 74.589 24.552 A 2.918 2.918 0 0 0 74.747 24.391 Q 75.452 23.611 75.692 22.141 Q 74.762 21.511 74.267 20.491 Q 73.772 19.471 73.772 18.331 Q 73.772 17.851 73.862 17.371 Z" id="4" vector-effect="non-scaling-stroke"/><path d="M 96.482 24.661 L 90.722 28.531 A 56.236 56.236 0 0 1 89.94 32.153 Q 89.476 33.988 88.93 35.514 A 22.508 22.508 0 0 1 87.737 38.296 A 9.784 9.784 0 0 1 86.718 39.892 Q 86.06 40.718 85.302 41.196 A 4.157 4.157 0 0 1 83.042 41.851 A 4.038 4.038 0 0 1 81.892 41.695 A 3.16 3.16 0 0 1 80.552 40.906 Q 79.592 39.961 79.592 38.431 A 6.726 6.726 0 0 1 79.91 36.418 A 8.369 8.369 0 0 1 80.237 35.551 A 8.016 8.016 0 0 1 80.811 34.489 Q 81.48 33.434 82.619 32.195 A 25.821 25.821 0 0 1 82.637 32.176 A 25.239 25.239 0 0 1 84.015 30.8 Q 84.755 30.113 85.652 29.365 A 60.992 60.992 0 0 1 87.602 27.811 L 87.692 27.121 A 28.806 28.806 0 0 0 87.8 26.506 Q 87.969 25.493 88.172 23.941 A 11.113 11.113 0 0 1 87.702 25.303 Q 87.412 25.988 87.053 26.523 A 5.17 5.17 0 0 1 86.492 27.226 A 5.617 5.617 0 0 1 86.475 27.243 Q 85.402 28.351 84.212 28.351 A 2.477 2.477 0 0 1 82.288 27.466 A 3.662 3.662 0 0 1 82.007 27.106 Q 81.152 25.861 81.152 24.001 A 29.403 29.403 0 0 1 81.241 21.652 A 22.779 22.779 0 0 1 81.452 19.876 Q 81.752 18.001 82.442 15.901 Q 82.653 15.265 82.985 14.884 A 1.757 1.757 0 0 1 83.282 14.611 A 1.671 1.671 0 0 1 83.727 14.389 Q 84.156 14.244 84.787 14.224 A 6.525 6.525 0 0 1 84.992 14.221 Q 85.514 14.221 85.783 14.352 A 0.629 0.629 0 0 1 85.907 14.431 Q 86.155 14.635 86.161 15.038 A 1.355 1.355 0 0 1 86.162 15.061 Q 86.162 15.266 85.921 16.302 A 59.681 59.681 0 0 1 85.832 16.681 A 37.203 37.203 0 0 0 85.569 17.707 Q 85.444 18.226 85.352 18.691 Q 85.112 19.921 84.932 21.046 A 19.023 19.023 0 0 0 84.837 21.709 Q 84.752 22.396 84.752 22.891 A 3.081 3.081 0 0 0 84.774 23.278 Q 84.825 23.679 84.994 23.866 A 0.498 0.498 0 0 0 85.382 24.031 A 0.626 0.626 0 0 0 85.665 23.953 Q 86.029 23.767 86.507 23.131 Q 87.116 22.318 87.799 20.746 A 26.721 26.721 0 0 0 87.947 20.401 A 26.509 26.509 0 0 0 88.514 18.91 Q 88.982 17.569 89.432 15.901 A 3.701 3.701 0 0 1 89.606 15.388 Q 89.72 15.125 89.865 14.927 A 1.611 1.611 0 0 1 90.167 14.611 A 1.576 1.576 0 0 1 90.645 14.36 Q 91.06 14.221 91.652 14.221 A 4.175 4.175 0 0 1 91.97 14.232 Q 92.409 14.266 92.612 14.401 Q 92.87 14.573 92.881 14.965 A 1.26 1.26 0 0 1 92.882 15.001 A 4.385 4.385 0 0 1 92.854 15.41 Q 92.735 16.577 92.102 20.161 L 91.322 24.991 A 90.011 90.011 0 0 1 94.58 22.644 A 77.6 77.6 0 0 1 95.822 21.811 A 2.162 2.162 0 0 1 96.056 21.684 Q 96.305 21.571 96.512 21.571 A 0.656 0.656 0 0 1 97.032 21.813 A 0.982 0.982 0 0 1 97.127 21.946 A 1.488 1.488 0 0 1 97.295 22.369 Q 97.352 22.606 97.352 22.891 Q 97.352 23.34 97.263 23.662 A 1.483 1.483 0 0 1 97.142 23.971 A 1.727 1.727 0 0 1 96.819 24.391 A 2.377 2.377 0 0 1 96.482 24.661 Z M 83.372 38.941 A 0.862 0.862 0 0 0 83.842 38.781 Q 84.35 38.449 84.93 37.423 A 10.84 10.84 0 0 0 85.052 37.201 A 10.718 10.718 0 0 0 85.567 36.058 Q 86.029 34.875 86.491 33.122 A 55.238 55.238 0 0 0 86.912 31.411 A 27.022 27.022 0 0 0 85.592 32.596 Q 84.945 33.219 84.445 33.803 A 10.75 10.75 0 0 0 83.567 34.966 Q 82.914 35.978 82.673 36.829 A 3.46 3.46 0 0 0 82.532 37.771 Q 82.532 38.186 82.661 38.482 A 1.187 1.187 0 0 0 82.727 38.611 A 0.645 0.645 0 0 0 83.199 38.927 A 1.038 1.038 0 0 0 83.372 38.941 Z" id="5" vector-effect="non-scaling-stroke"/><path d="M 109.426 21.748 A 0.668 0.668 0 0 0 108.902 21.511 A 0.941 0.941 0 0 0 108.344 21.696 A 1.429 1.429 0 0 0 108.092 21.931 Q 106.832 23.461 105.107 24.406 Q 104.082 24.967 103.19 25.195 A 4.684 4.684 0 0 1 102.032 25.351 A 5.967 5.967 0 0 1 101.738 25.344 Q 101.177 25.316 100.722 25.18 A 2.476 2.476 0 0 1 99.182 23.971 A 23.231 23.231 0 0 0 99.639 23.853 Q 102.819 23.003 104.207 21.616 A 5.986 5.986 0 0 0 104.253 21.569 A 4.843 4.843 0 0 0 105.692 18.061 A 5.004 5.004 0 0 0 105.599 17.074 A 3.438 3.438 0 0 0 104.642 15.256 A 3.459 3.459 0 0 0 103.059 14.366 A 4.756 4.756 0 0 0 101.852 14.221 Q 99.902 14.221 98.357 15.271 A 6.907 6.907 0 0 0 97.538 15.922 A 7.318 7.318 0 0 0 95.942 18.106 Q 95.072 19.891 95.072 21.961 A 8.369 8.369 0 0 0 95.246 23.714 A 5.66 5.66 0 0 0 96.812 26.641 A 5.341 5.341 0 0 0 97.552 27.248 Q 98.495 27.889 99.744 28.158 A 9.328 9.328 0 0 0 101.702 28.351 Q 104.012 28.351 106.037 27.211 A 16.09 16.09 0 0 0 106.566 26.899 Q 107.335 26.427 107.954 25.92 A 8.699 8.699 0 0 0 109.172 24.721 A 2.025 2.025 0 0 0 109.442 24.316 Q 109.742 23.73 109.742 22.861 A 3.024 3.024 0 0 0 109.729 22.576 Q 109.71 22.379 109.664 22.215 A 1.313 1.313 0 0 0 109.517 21.871 A 0.949 0.949 0 0 0 109.426 21.748 Z M 98.702 21.571 L 98.702 21.631 Q 100.087 21.302 101.013 20.716 A 4.737 4.737 0 0 0 101.492 20.371 Q 102.512 19.531 102.512 18.421 A 1.674 1.674 0 0 0 102.467 18.026 A 1.163 1.163 0 0 0 102.197 17.506 Q 101.882 17.161 101.342 17.161 A 1.824 1.824 0 0 0 100.089 17.664 Q 99.837 17.891 99.613 18.22 A 4.318 4.318 0 0 0 99.467 18.451 A 5.325 5.325 0 0 0 98.828 20.173 A 7.374 7.374 0 0 0 98.702 21.571 Z" id="6" vector-effect="non-scaling-stroke"/><path d="M 121.216 21.748 A 0.668 0.668 0 0 0 120.692 21.511 A 0.941 0.941 0 0 0 120.134 21.696 A 1.429 1.429 0 0 0 119.882 21.931 Q 118.622 23.461 116.897 24.406 Q 115.872 24.967 114.98 25.195 A 4.684 4.684 0 0 1 113.822 25.351 A 5.967 5.967 0 0 1 113.528 25.344 Q 112.967 25.316 112.512 25.18 A 2.476 2.476 0 0 1 110.972 23.971 A 23.231 23.231 0 0 0 111.429 23.853 Q 114.609 23.003 115.997 21.616 A 5.986 5.986 0 0 0 116.043 21.569 A 4.843 4.843 0 0 0 117.482 18.061 A 5.004 5.004 0 0 0 117.389 17.074 A 3.438 3.438 0 0 0 116.432 15.256 A 3.459 3.459 0 0 0 114.849 14.366 A 4.756 4.756 0 0 0 113.642 14.221 Q 111.692 14.221 110.147 15.271 A 6.907 6.907 0 0 0 109.328 15.922 A 7.318 7.318 0 0 0 107.732 18.106 Q 106.862 19.891 106.862 21.961 A 8.369 8.369 0 0 0 107.036 23.714 A 5.66 5.66 0 0 0 108.602 26.641 A 5.341 5.341 0 0 0 109.342 27.248 Q 110.285 27.889 111.534 28.158 A 9.328 9.328 0 0 0 113.492 28.351 Q 115.802 28.351 117.827 27.211 A 16.09 16.09 0 0 0 118.356 26.899 Q 119.125 26.427 119.744 25.92 A 8.699 8.699 0 0 0 120.962 24.721 A 2.025 2.025 0 0 0 121.232 24.316 Q 121.532 23.73 121.532 22.861 A 3.024 3.024 0 0 0 121.519 22.576 Q 121.5 22.379 121.454 22.215 A 1.313 1.313 0 0 0 121.307 21.871 A 0.949 0.949 0 0 0 121.216 21.748 Z M 110.492 21.571 L 110.492 21.631 Q 111.877 21.302 112.803 20.716 A 4.737 4.737 0 0 0 113.282 20.371 Q 114.302 19.531 114.302 18.421 A 1.674 1.674 0 0 0 114.257 18.026 A 1.163 1.163 0 0 0 113.987 17.506 Q 113.672 17.161 113.132 17.161 A 1.824 1.824 0 0 0 111.879 17.664 Q 111.627 17.891 111.403 18.22 A 4.318 4.318 0 0 0 111.257 18.451 A 5.325 5.325 0 0 0 110.618 20.173 A 7.374 7.374 0 0 0 110.492 21.571 Z" id="7" vector-effect="non-scaling-stroke"/><path d="M 139.142 20.071 L 137.852 27.301 Q 137.124 31.343 133.973 31.467 A 5.135 5.135 0 0 1 133.772 31.471 Q 131.942 31.471 130.397 30.391 A 6.221 6.221 0 0 1 128.9 28.882 Q 128.347 28.105 127.922 27.091 Q 127.127 25.193 127.011 22.55 A 21.076 21.076 0 0 1 126.992 21.631 Q 126.992 15.541 128.957 11.296 A 17.261 17.261 0 0 1 130.934 7.989 A 12.981 12.981 0 0 1 134.237 4.936 Q 137.552 2.821 141.542 2.821 A 13.401 13.401 0 0 1 143.692 2.984 Q 144.885 3.178 145.878 3.602 A 7.831 7.831 0 0 1 146.327 3.811 A 7.713 7.713 0 0 1 148.121 5.04 A 6.512 6.512 0 0 1 149.297 6.496 A 7.241 7.241 0 0 1 150.29 9.86 A 8.74 8.74 0 0 1 150.302 10.321 Q 150.302 12.871 148.982 15.001 A 9.306 9.306 0 0 1 146.464 17.659 A 11.833 11.833 0 0 1 145.142 18.481 Q 142.622 19.831 139.142 20.071 Z M 133.922 25.651 L 134.912 19.981 A 338.78 338.78 0 0 0 134.676 19.944 Q 133.794 19.809 133.883 19.829 A 0.528 0.528 0 0 0 133.892 19.831 A 3.67 3.67 0 0 1 133.481 19.74 Q 132.924 19.579 132.722 19.276 Q 132.452 18.871 132.452 18.241 Q 132.452 17.581 132.827 17.191 Q 133.202 16.801 133.862 16.801 Q 134.107 16.801 134.252 16.821 A 1.015 1.015 0 0 1 134.312 16.831 Q 135.032 16.951 135.422 16.981 Q 135.812 14.641 136.532 10.711 A 3.063 3.063 0 0 1 136.695 10.117 Q 136.918 9.551 137.357 9.256 A 2.544 2.544 0 0 1 138.527 8.839 A 3.228 3.228 0 0 1 138.872 8.821 A 4.132 4.132 0 0 1 139.371 8.849 Q 139.901 8.913 140.209 9.128 A 1.071 1.071 0 0 1 140.297 9.196 Q 140.664 9.512 140.721 10.138 A 2.66 2.66 0 0 1 140.732 10.381 Q 140.732 10.861 140.672 11.161 L 139.682 16.981 Q 144.903 16.318 145.691 12.175 A 8.475 8.475 0 0 0 145.832 10.591 A 4.893 4.893 0 0 0 145.599 9.051 A 4.054 4.054 0 0 0 144.527 7.366 A 3.991 3.991 0 0 0 143.112 6.514 Q 142.502 6.293 141.749 6.196 A 9.863 9.863 0 0 0 140.492 6.121 Q 137.402 6.121 135.107 8.071 A 10.991 10.991 0 0 0 132.758 10.909 A 15.238 15.238 0 0 0 131.567 13.486 A 20.609 20.609 0 0 0 130.56 17.692 A 27.507 27.507 0 0 0 130.322 21.391 A 15.732 15.732 0 0 0 130.404 23.042 Q 130.497 23.926 130.697 24.691 A 9.896 9.896 0 0 0 130.978 25.602 Q 131.134 26.028 131.316 26.374 A 4.272 4.272 0 0 0 131.657 26.926 A 3.482 3.482 0 0 0 131.937 27.264 Q 132.372 27.721 132.782 27.721 Q 133.455 27.721 133.838 26.052 A 10.396 10.396 0 0 0 133.922 25.651 Z" id="9" vector-effect="non-scaling-stroke"/><path d="M 150.538 27.466 A 2.477 2.477 0 0 0 152.462 28.351 Q 153.632 28.351 154.652 27.256 A 4.883 4.883 0 0 0 155.159 26.605 Q 155.504 26.08 155.771 25.411 A 10.051 10.051 0 0 0 156.182 24.121 A 9.915 9.915 0 0 0 156.233 25.164 Q 156.368 26.438 156.857 27.241 A 2.175 2.175 0 0 0 158.109 28.231 A 2.936 2.936 0 0 0 158.972 28.351 Q 160.862 28.351 162.347 27.331 A 11.895 11.895 0 0 0 163.521 26.408 A 14.388 14.388 0 0 0 165.122 24.721 A 2.025 2.025 0 0 0 165.392 24.316 Q 165.692 23.73 165.692 22.861 A 3.024 3.024 0 0 0 165.679 22.576 Q 165.66 22.379 165.614 22.215 A 1.313 1.313 0 0 0 165.467 21.871 A 0.949 0.949 0 0 0 165.376 21.748 A 0.668 0.668 0 0 0 164.852 21.511 A 0.941 0.941 0 0 0 164.294 21.696 A 1.429 1.429 0 0 0 164.042 21.931 A 50.513 50.513 0 0 1 163.592 22.46 Q 162.884 23.284 162.344 23.83 A 11.212 11.212 0 0 1 161.837 24.316 Q 161.012 25.051 160.412 25.051 A 0.955 0.955 0 0 1 160.398 25.05 Q 160.017 25.045 159.782 24.736 A 1.005 1.005 0 0 1 159.652 24.506 Q 159.592 24.361 159.565 24.182 A 2.195 2.195 0 0 1 159.542 23.851 A 2.058 2.058 0 0 1 159.542 23.826 Q 159.551 23.075 160.096 20.447 A 127.895 127.895 0 0 1 160.382 19.111 A 134.308 134.308 0 0 0 160.475 18.689 Q 161.132 15.702 161.132 15.001 A 1.3 1.3 0 0 0 161.125 14.872 Q 161.114 14.755 161.08 14.661 A 0.518 0.518 0 0 0 160.862 14.386 Q 160.659 14.262 160.22 14.231 A 4.552 4.552 0 0 0 159.902 14.221 Q 159.31 14.221 158.895 14.36 A 1.576 1.576 0 0 0 158.417 14.611 A 1.611 1.611 0 0 0 158.115 14.927 Q 157.97 15.125 157.856 15.388 A 3.701 3.701 0 0 0 157.682 15.901 Q 157.232 17.569 156.764 18.91 A 26.509 26.509 0 0 1 156.197 20.401 A 26.721 26.721 0 0 1 156.049 20.746 Q 155.366 22.318 154.757 23.131 Q 154.279 23.767 153.915 23.953 A 0.626 0.626 0 0 1 153.632 24.031 A 0.728 0.728 0 0 1 153.505 24.02 A 0.491 0.491 0 0 1 153.152 23.776 A 0.729 0.729 0 0 1 153.092 23.643 Q 153.002 23.38 153.002 22.891 A 5.397 5.397 0 0 1 153.013 22.563 Q 153.084 21.408 153.602 18.691 Q 153.694 18.226 153.819 17.707 A 37.203 37.203 0 0 1 154.082 16.681 A 59.681 59.681 0 0 0 154.171 16.302 Q 154.412 15.266 154.412 15.061 A 1.355 1.355 0 0 0 154.411 15.038 Q 154.405 14.635 154.157 14.431 A 0.629 0.629 0 0 0 154.033 14.352 Q 153.764 14.221 153.242 14.221 A 6.525 6.525 0 0 0 153.037 14.224 Q 152.406 14.244 151.977 14.389 A 1.671 1.671 0 0 0 151.532 14.611 A 1.757 1.757 0 0 0 151.235 14.884 Q 150.903 15.265 150.692 15.901 Q 150.002 18.001 149.702 19.876 A 22.779 22.779 0 0 0 149.491 21.652 A 29.403 29.403 0 0 0 149.402 24.001 Q 149.402 25.861 150.257 27.106 A 3.662 3.662 0 0 0 150.538 27.466 Z" id="10" vector-effect="non-scaling-stroke"/><path d="M 175.156 21.748 A 0.668 0.668 0 0 0 174.632 21.511 A 0.941 0.941 0 0 0 174.074 21.696 A 1.429 1.429 0 0 0 173.822 21.931 Q 172.787 23.16 172.015 23.869 A 7.823 7.823 0 0 1 171.452 24.346 A 3.43 3.43 0 0 1 170.679 24.789 A 3.621 3.621 0 0 1 169.292 25.051 A 2.18 2.18 0 0 1 169.124 25.044 A 1.59 1.59 0 0 1 168.032 24.526 Q 167.687 24.148 167.481 23.407 A 6.458 6.458 0 0 1 167.342 22.771 A 51.913 51.913 0 0 0 169.323 19.874 A 43.441 43.441 0 0 0 172.712 13.441 A 33.472 33.472 0 0 0 173.495 11.4 Q 174.066 9.746 174.365 8.249 A 15.825 15.825 0 0 0 174.692 5.161 A 15.033 15.033 0 0 0 174.692 5.136 Q 174.689 3.596 174.369 2.499 A 4.714 4.714 0 0 0 173.867 1.336 A 3.498 3.498 0 0 0 173.536 0.882 A 2.449 2.449 0 0 0 171.602 0.001 A 3.777 3.777 0 0 0 169.416 0.704 Q 168.765 1.153 168.173 1.891 A 10.169 10.169 0 0 0 167.207 3.361 A 20.831 20.831 0 0 0 167.084 3.587 Q 166.174 5.295 165.49 7.335 A 33.904 33.904 0 0 0 164.417 11.401 A 59.7 59.7 0 0 0 164.169 12.697 Q 163.827 14.61 163.652 16.343 A 33.993 33.993 0 0 0 163.472 19.741 Q 163.472 21.884 163.875 23.581 A 9.924 9.924 0 0 0 164.747 25.951 A 5.759 5.759 0 0 0 165.074 26.495 Q 166.34 28.351 168.662 28.351 A 7.027 7.027 0 0 0 168.669 28.351 A 6.007 6.007 0 0 0 172.097 27.331 Q 173.612 26.311 174.902 24.721 A 2.025 2.025 0 0 0 175.172 24.316 Q 175.472 23.73 175.472 22.861 A 3.024 3.024 0 0 0 175.459 22.576 Q 175.44 22.379 175.394 22.215 A 1.313 1.313 0 0 0 175.247 21.871 A 0.949 0.949 0 0 0 175.156 21.748 Z M 170.942 2.971 A 0.57 0.57 0 0 0 170.574 3.136 Q 170.027 3.613 169.382 5.461 A 29.186 29.186 0 0 0 168.759 7.497 Q 168.45 8.642 168.174 9.968 A 60.237 60.237 0 0 0 167.852 11.641 A 46.903 46.903 0 0 0 167.228 16.573 A 40.4 40.4 0 0 0 167.132 18.721 A 40.118 40.118 0 0 0 169.791 13.557 A 35.07 35.07 0 0 0 170.522 11.686 Q 171.647 8.537 171.767 5.88 A 13.915 13.915 0 0 0 171.782 5.251 A 9.453 9.453 0 0 0 171.757 4.534 Q 171.671 3.409 171.287 3.094 A 0.528 0.528 0 0 0 170.942 2.971 Z" id="11" vector-effect="non-scaling-stroke"/><path d="M 171.692 24.391 L 172.082 23.911 A 63.795 63.795 0 0 0 173.034 22.706 Q 173.93 21.541 174.493 20.673 A 17.258 17.258 0 0 0 174.572 20.551 A 18.837 18.837 0 0 0 174.908 19.95 Q 175.291 19.237 175.756 18.257 A 59.527 59.527 0 0 0 175.772 18.226 Q 176.462 16.771 177.122 15.211 A 2.05 2.05 0 0 1 178.593 13.991 Q 178.996 13.891 179.492 13.891 Q 180.115 13.891 180.457 13.973 A 1.147 1.147 0 0 1 180.662 14.041 A 0.674 0.674 0 0 1 180.828 14.145 A 0.475 0.475 0 0 1 180.992 14.52 A 0.836 0.836 0 0 1 180.983 14.631 Q 180.96 14.804 180.872 15.091 A 4.235 4.235 0 0 1 180.617 15.724 A 4.821 4.821 0 0 1 180.542 15.871 Q 180.005 16.944 180.002 17.692 A 2.09 2.09 0 0 0 180.002 17.701 Q 180.002 18.151 180.317 18.691 Q 180.617 19.206 181.232 19.967 A 21.906 21.906 0 0 0 181.292 20.041 A 28.936 28.936 0 0 1 181.897 20.862 Q 182.422 21.605 182.747 22.186 Q 183.242 23.071 183.242 24.121 Q 183.242 24.35 183.206 24.721 A 15.13 15.13 0 0 1 183.182 24.961 Q 184.415 24.482 186.008 22.672 A 22.015 22.015 0 0 0 186.632 21.931 A 1.429 1.429 0 0 1 186.884 21.696 A 0.941 0.941 0 0 1 187.442 21.511 A 0.668 0.668 0 0 1 187.966 21.748 A 0.949 0.949 0 0 1 188.057 21.871 A 1.313 1.313 0 0 1 188.204 22.215 Q 188.25 22.379 188.269 22.576 A 3.024 3.024 0 0 1 188.282 22.861 A 3.727 3.727 0 0 1 188.198 23.672 Q 188.063 24.276 187.712 24.721 A 14.607 14.607 0 0 1 186.787 25.767 Q 186.294 26.271 185.816 26.64 A 5.837 5.837 0 0 1 184.847 27.256 Q 183.482 27.931 181.472 27.991 Q 180.272 29.011 178.622 29.011 A 5.425 5.425 0 0 1 177.718 28.94 Q 177.232 28.858 176.845 28.68 A 2.515 2.515 0 0 1 176.237 28.291 A 2.826 2.826 0 0 1 175.767 27.774 A 1.902 1.902 0 0 1 175.412 26.671 A 1.841 1.841 0 0 1 175.964 25.338 A 2.334 2.334 0 0 1 175.982 25.321 Q 176.552 24.751 177.662 24.751 A 4.979 4.979 0 0 1 178.001 24.763 Q 178.182 24.775 178.386 24.8 A 9.446 9.446 0 0 1 178.577 24.826 A 54.838 54.838 0 0 0 178.823 24.86 Q 179.061 24.893 179.231 24.914 A 12.204 12.204 0 0 0 179.372 24.931 Q 179.342 24.151 179.027 23.461 A 7.302 7.302 0 0 0 178.291 22.206 A 8.06 8.06 0 0 0 178.232 22.126 A 22.068 22.068 0 0 0 177.795 21.557 Q 177.585 21.293 177.388 21.065 A 13.137 13.137 0 0 0 177.332 21.001 Q 176.402 22.771 175.487 23.941 Q 174.572 25.111 173.492 26.161 A 2.208 2.208 0 0 1 173.115 26.467 Q 172.833 26.645 172.536 26.688 A 1.314 1.314 0 0 1 172.352 26.701 Q 171.872 26.701 171.572 26.356 A 1.213 1.213 0 0 1 171.28 25.671 A 1.601 1.601 0 0 1 171.272 25.501 A 1.666 1.666 0 0 1 171.582 24.536 A 2.154 2.154 0 0 1 171.692 24.391 Z" id="12" vector-effect="non-scaling-stroke"/><path d="M 199.756 21.748 A 0.668 0.668 0 0 0 199.232 21.511 A 0.941 0.941 0 0 0 198.674 21.696 A 1.429 1.429 0 0 0 198.422 21.931 Q 197.162 23.461 195.437 24.406 Q 194.412 24.967 193.52 25.195 A 4.684 4.684 0 0 1 192.362 25.351 A 5.967 5.967 0 0 1 192.068 25.344 Q 191.507 25.316 191.052 25.18 A 2.476 2.476 0 0 1 189.512 23.971 A 23.231 23.231 0 0 0 189.969 23.853 Q 193.149 23.003 194.537 21.616 A 5.986 5.986 0 0 0 194.583 21.569 A 4.843 4.843 0 0 0 196.022 18.061 A 5.004 5.004 0 0 0 195.929 17.074 A 3.438 3.438 0 0 0 194.972 15.256 A 3.459 3.459 0 0 0 193.389 14.366 A 4.756 4.756 0 0 0 192.182 14.221 Q 190.232 14.221 188.687 15.271 A 6.907 6.907 0 0 0 187.868 15.922 A 7.318 7.318 0 0 0 186.272 18.106 Q 185.402 19.891 185.402 21.961 A 8.369 8.369 0 0 0 185.576 23.714 A 5.66 5.66 0 0 0 187.142 26.641 A 5.341 5.341 0 0 0 187.882 27.248 Q 188.825 27.889 190.074 28.158 A 9.328 9.328 0 0 0 192.032 28.351 Q 194.342 28.351 196.367 27.211 A 16.09 16.09 0 0 0 196.896 26.899 Q 197.665 26.427 198.284 25.92 A 8.699 8.699 0 0 0 199.502 24.721 A 2.025 2.025 0 0 0 199.772 24.316 Q 200.072 23.73 200.072 22.861 A 3.024 3.024 0 0 0 200.059 22.576 Q 200.04 22.379 199.994 22.215 A 1.313 1.313 0 0 0 199.847 21.871 A 0.949 0.949 0 0 0 199.756 21.748 Z M 189.032 21.571 L 189.032 21.631 Q 190.417 21.302 191.343 20.716 A 4.737 4.737 0 0 0 191.822 20.371 Q 192.842 19.531 192.842 18.421 A 1.674 1.674 0 0 0 192.797 18.026 A 1.163 1.163 0 0 0 192.527 17.506 Q 192.212 17.161 191.672 17.161 A 1.824 1.824 0 0 0 190.419 17.664 Q 190.167 17.891 189.943 18.22 A 4.318 4.318 0 0 0 189.797 18.451 A 5.325 5.325 0 0 0 189.158 20.173 A 7.374 7.374 0 0 0 189.032 21.571 Z" id="13" vector-effect="non-scaling-stroke"/></g></svg>