<svg xmlns="http://www.w3.org/2000/svg" width="428.84827" height="492.88784" viewBox="0 0 428.84827 492.88784" xmlns:xlink="http://www.w3.org/1999/xlink"><g><path d="M403.784,401.62203c-.8443-1.42365-4.49683,.10068-5.16833-1.19135-.66913-1.28735,2.72449-3.24887,4.66333-7.7298,.34967-.80807,2.55298-5.90033,.92188-7.47162-3.09174-2.97836-17.23962,9.31259-22.19073,5.29041-1.08661-.88269-1.8457-2.64484-5.13428-5.50583-1.30829-1.13815-2.09937-1.65204-2.86499-1.46085-1.08636,.27127-1.17242,1.72522-2.33734,4.58398-1.74701,4.28729-2.78027,4.02841-3.79816,7.44897-.75562,2.53925-.58301,4.01553-1.47217,4.30313-1.25824,.40701-2.41638-2.28632-4.01099-2.04517-1.6272,.24612-2.61096,3.38205-2.92169,5.72998-.58313,4.40607,1.03497,7.31348,1.93182,10.37064,.97461,3.32236,1.55304,8.37494-.69769,15.52759l-22.27719,62.76614c4.91812-12.87943,19.15842-48.18536,25.14218-61.3053,1.72742-3.78745,3.6347-7.62909,7.55096-9.14526,3.77045-1.45978,8.94867-.58823,15.55029-2.17862,.771-.1857,2.91052-.73007,3.17981-1.98849,.22266-1.04037-1.03583-1.62109-.84247-2.59549,.25934-1.30701,2.73413-1.32306,5.77533-2.83096,2.14447-1.06332,3.48047-2.32785,4.62933-3.41531,.34637-.32785,5.49512-5.26166,4.37115-7.1568h-.00006Z" fill="#f2f2f2"/><path d="M316.13889,434.66475c-.94235,.0036-1.24805,2.23611-2.07593,2.1929-.82492-.04303-.80847-2.2746-2.4483-4.5191-.29572-.40475-2.1593-2.95547-3.40115-2.60825-2.35385,.65808-.4035,11.14828-3.80618,12.41782-.74673,.27863-1.83066,.14276-4.18369,.93134-.9361,.31372-1.41656,.55371-1.54364,.98465-.1803,.61145,.50845,1.07324,1.57544,2.46979,1.60016,2.09445,1.17496,2.52692,2.56009,4.01343,1.02826,1.10352,1.80264,1.44476,1.68723,1.96414-.16327,.73499-1.81934,.52631-2.16107,1.37851-.34869,.86966,.90659,2.25729,1.9693,3.08725,1.99429,1.5575,3.88812,1.6022,5.64737,2.04413,1.91183,.48026,4.55859,1.65421,7.41974,4.82266l24.37836,29.04382c-4.90228-6.12997-18.12189-23.30609-22.83472-30.0285-1.3605-1.94061-2.69568-3.98517-2.30984-6.34479,.37143-2.27176,2.29327-4.56177,3.41748-8.26077,.13132-.43201,.48145-1.63916-.05847-2.13443-.44638-.40945-1.09451,.04068-1.51697-.33539-.56665-.50443,.13953-1.72369,.27689-3.6514,.09686-1.35931-.13831-2.37988-.34055-3.25754-.06097-.26459-.99695-4.21518-2.25137-4.21036v.00009Z" fill="#f2f2f2"/><path d="M334.93851,438.88484l-.56775-5.06818,.2594-.38422c1.20035-1.77667,1.81216-3.51175,1.81949-5.15872,.00122-.26184-.01102-.52371-.02325-.79044-.04895-1.05719-.11011-2.37134,.5751-3.90329,.38422-.85406,1.46344-2.83142,3.08594-2.5867,.43683,.06119,.76721,.26184,1.01804,.49677,.03671-.05872,.07465-.11746,.11502-.18109,.50534-.77087,.90546-1.10123,1.29089-1.41937,.29611-.24472,.60202-.49677,1.08167-1.0939,.21045-.26184,.37442-.49188,.5127-.68521,.41971-.58487,.96786-1.28235,1.93451-1.27011,1.03271,.04895,1.57355,.90302,1.93207,1.46832,.63995,1.00824,.92993,1.73508,1.12204,2.21716,.06976,.17621,.14929,.37442,.18967,.43561,.33282,.48944,3.03824,.0318,4.05746-.13461,2.28937-.38177,4.27039-.71213,5.08655,.73172,.5849,1.03271,.15051,2.39825-1.33008,4.1676-.4613,.55063-.95197,.96909-1.38757,1.29703,.36096,.21536,.68396,.54572,.81494,1.06454h0c.30835,1.22849-.74762,2.45944-3.13733,3.66348-.59344,.30099-1.39246,.70236-2.51205,.89569-.52737,.09055-1.00214,.11258-1.40836,.12482-.00858,.23492-.06363,.48944-.20679,.75128-.41971,.77087-1.29333,1.13794-2.60995,1.04984-1.44876-.07587-2.64175-.35239-3.69406-.59467-.91891-.21045-1.7106-.3891-2.33218-.3475-1.15262,.09299-2.04099,1.01559-3.08347,2.21228l-2.6026,3.04187h-.00003Z" fill="#f2f2f2"/><path d="M337.5722,408.70891l-4.75842,1.83472-.43744-.15347c-2.02304-.71045-3.85654-.86215-5.45151-.45148-.2536,.06525-.50378,.14349-.7587,.22299-1.01019,.31549-2.26587,.70801-3.92151,.43378-.92361-.155-3.11002-.69739-3.28485-2.32889-.05161-.43805,.05869-.80853,.22232-1.11075-.06613-.0206-.13257-.04239-.20435-.06531-.87384-.2933-1.29489-.59653-1.70041-.88867-.31183-.22437-.63324-.45633-1.33249-.76883-.30667-.13715-.57077-.2374-.79285-.32211-.67221-.2576-1.4859-.61096-1.71924-1.5491-.2146-1.01135,.47437-1.75113,.93024-2.24133,.81296-.87476,1.44244-1.33963,1.86005-1.64774,.15274-.11215,.32431-.23938,.37326-.29395,.38901-.44608-.73987-2.94693-1.15936-3.89062-.94998-2.11765-1.77203-3.95007-.5824-5.10577,.85059-.8277,2.28165-.75391,4.36868,.22946,.64963,.30655,1.17886,.67502,1.60657,1.01321,.11676-.40378,.35437-.80005,.82303-1.05829h0c1.11011-.60986,2.56863,.09933,4.33945,2.10547,.44168,.49768,1.03259,1.16876,1.50357,2.2027,.22134,.48715,.36307,.9408,.47797,1.33066,.22943-.0513,.48956-.06259,.77917,.00946,.85211,.21045,1.4288,.9624,1.67752,2.2583,.2941,1.42062,.32922,2.64474,.36179,3.72409,.02951,.94226,.0575,1.75336,.25543,2.34406,.38232,1.09134,1.50006,1.71661,2.92206,2.42148l3.60254,1.74591-.00012,.00003Z" fill="#f2f2f2"/><path d="M334.93851,393.77791l-.56775-5.06818,.2594-.38422c1.20035-1.77667,1.81216-3.51175,1.81949-5.15872,.00122-.26184-.01102-.52371-.02325-.79044-.04895-1.05719-.11011-2.37134,.5751-3.90329,.38422-.85406,1.46344-2.83142,3.08594-2.5867,.43683,.06119,.76721,.26184,1.01804,.49677,.03671-.05872,.07465-.11746,.11502-.18109,.50534-.77087,.90546-1.10123,1.29089-1.41937,.29611-.24472,.60202-.49677,1.08167-1.0939,.21045-.26184,.37442-.49188,.5127-.68521,.41971-.58487,.96786-1.28235,1.93451-1.27011,1.03271,.04895,1.57355,.90302,1.93207,1.46832,.63995,1.00824,.92993,1.73508,1.12204,2.21716,.06976,.17621,.14929,.37442,.18967,.43561,.33282,.48944,3.03824,.0318,4.05746-.13461,2.28937-.38177,4.27039-.71213,5.08655,.73172,.5849,1.03271,.15051,2.39825-1.33008,4.1676-.4613,.55063-.95197,.96909-1.38757,1.29703,.36096,.21536,.68396,.54572,.81494,1.06454h0c.30835,1.22849-.74762,2.45944-3.13733,3.66348-.59344,.30099-1.39246,.70236-2.51205,.89569-.52737,.09055-1.00214,.11258-1.40836,.12482-.00858,.23492-.06363,.48944-.20679,.75128-.41971,.77087-1.29333,1.13794-2.60995,1.04984-1.44876-.07587-2.64175-.35239-3.69406-.59467-.91891-.21045-1.7106-.3891-2.33218-.3475-1.15262,.09299-2.04099,1.01559-3.08347,2.21228l-2.6026,3.04187h-.00003Z" fill="#f2f2f2"/><path d="M340.12415,492.15566l-1.0621-.66565-.25696-1.22604,.25696,1.22604-1.23828,.14194c-.01959-.11502-.08688-.37933-.18842-.79291-.55429-2.26611-2.24408-9.16235-3.65369-20.02304-.9838-7.58145-1.54053-15.37579-1.65555-23.17017-.11502-7.80658,.25452-13.71661,.55063-18.46661,.22391-3.5827,.49557-6.99411,.7623-10.31744,.70969-8.87848,1.379-17.26505,.88098-26.54974-.11011-2.07278-.3414-6.38721-2.862-10.97818-1.46222-2.66257-3.47626-5.02655-5.98709-7.02347l1.56131-1.96265c2.77145,2.20737,4.99963,4.8259,6.62338,7.78214,2.79471,5.09018,3.04678,9.79129,3.16791,12.05005,.50656,9.44867-.17007,17.91602-.88712,26.88013-.26431,3.31107-.53595,6.70779-.75864,10.27582-.29367,4.70599-.65952,10.56458-.54572,18.27084,.11258,7.70135,.66318,15.40027,1.63351,22.88629,1.39246,10.72366,3.0578,17.51712,3.60474,19.74896,.29123,1.1918,.35239,1.44141,.05383,1.91373v-.00003Z" fill="#f2f2f2"/><path d="M321.07507,378.29201c-.10278,0-.20679-.00244-.31201-.0098-2.13397-.11502-4.11008-1.39246-5.87451-3.79562-.82715-1.13062-1.25052-2.42029-2.09482-4.99231-.13092-.39645-.76721-2.40805-1.15387-5.17584-.2533-1.8085-.22147-2.56467,.13705-3.23276,.39767-.74396,1.04129-1.26276,1.76566-1.6127-.0318-.23984-.00613-.487,.0979-.73907,.42703-1.04495,1.56253-.9079,2.17679-.84183,.31079,.03915,.69867,.09055,1.11716,.06851,.65829-.0318,1.01193-.2276,1.54785-.52127,.5127-.28143,1.15018-.63138,2.09604-.82471,1.86478-.3891,3.42731,.1395,3.94244,.31323,2.71027,.90302,4.04645,3.01007,5.59308,5.44992,.30835,.48944,1.36676,2.271,2.06543,4.71332,.50412,1.76199,.43317,2.5451,.28143,3.12753-.30835,1.19669-1.03638,1.8819-2.88525,3.39429-1.93085,1.58334-2.89993,2.37625-3.73199,2.85834-1.93695,1.11838-3.15323,1.82071-4.76837,1.82071v.00006Z" fill="#f2f2f2"/></g><g><path id="b-259" d="M240.51615,140.41641c6.77969-3.38913,10.52648-9.63443,8.36891-13.94872-2.15757-4.31428-9.40155-5.06329-16.1832-1.67204-2.72757,1.31751-5.09997,3.26905-6.91869,5.69138l-28.54447,14.72264,7.19442,13.24782,27.37597-15.92042c3.03008-.00137,6.01574-.72854,8.70706-2.12066Z" fill="#ffb6b6"/><g><polygon points="78.78938 482.89611 92.37677 482.89479 98.84038 430.48566 78.78665 430.48707 78.78938 482.89611" fill="#ffb6b6"/><path d="M125.3415,482.58789h0c.42306,.71252,.64629,3.01221,.64629,3.84081h0c0,2.5469-2.06464,4.61162-4.61162,4.61162h-42.07858c-1.73748,0-3.14607-1.4085-3.14607-3.14607v-1.75187s-2.08159-5.26527,2.20403-11.755c0,0,5.32645,5.08156,13.28554-2.87753l2.34706-4.25188,16.98951,12.42527,9.41703,1.15915c2.06025,.25357,3.88686-.03935,4.94663,1.7455h.00017Z" fill="#2f2e41"/></g><g><polygon points="100.12569 425.26911 112.19247 431.51493 142.02823 387.9452 124.21905 378.72647 100.12569 425.26911" fill="#ffb6b6"/><path d="M141.60761,446.39838h0c.04811,.82726-.81097,2.97211-1.19193,3.70794h0c-1.17097,2.26175-3.95374,3.14606-6.21556,1.97505l-37.36752-19.34621c-1.54295-.79883-2.14626-2.69726-1.34739-4.24028l.80544-1.55573s.57225-5.63281,7.36179-9.42559c0,0,2.39379,6.96154,13.12109,3.55285l4.03915-2.69675,9.3747,18.84532,7.82978,5.35898c1.71301,1.17241,3.46979,1.75209,3.59029,3.82436l.00015,.00008Z" fill="#2f2e41"/></g><polygon points="64.99087 66.90806 100.62386 66.90806 99.84625 78.52652 123.08316 152.59419 127.44008 201.97263 83.87087 209.23417 63.53857 117.73882 67.89549 75.62191 64.99087 66.90806" fill="#b5c1fb"/><path d="M67.16934,76.34806l-37.75999,18.87999,23.23692,78.42459-4.35692,79.8769s59.5446,18.87999,56.63998-34.85537-2.90461-62.44921-2.90461-62.44921l-34.85537-79.8769Z" fill="#2f2e41"/><path d="M127.44008,86.13112s9.44-6.87845,13.79692,3.2877,32.67691,61.72306,32.67691,61.72306l44.29537-19.60615,7.26154,15.97538s-36.30768,34.85537-58.09229,30.49845c-21.78461-4.35692-39.21229-42.11691-39.21229-42.11691l-.72615-49.76153Z" fill="#2f2e41"/><path d="M52.64626,239.00647s-1.45231,23.23692,1.45231,42.11691,22.51076,179.35994,22.51076,179.35994l24.68922-1.45231,2.17846-188.07378,34.85537,55.18767-30.49845,82.78151,21.05845,9.44,44.29537-90.7692-30.49845-103.11381-8.71384-26.14153-65.35382,7.26154-15.97538,33.40307Z" fill="#2f2e41"/><path d="M149.95085,244.8157s-39.21229,11.61846-47.92614-88.59074l-1.97095-80.79887,36.82632,9.63582-4.35692,72.61536,17.42769,87.13843Z" fill="#2f2e41"/><circle cx="83.14471" cy="31.32654" r="26.14153" fill="#ffb6b6"/><path d="M66.44318,56.74191s-11.61846-13.07076-13.07076-18.87999-1.45231-21.78461,0-23.23692S70.8001-1.35037,76.60933,.10193s17.32447,8.71384,27.59384,8.71384c2.90461,0,4.35692,14.52307,4.35692,14.52307l-11.61846,1.45231s-14.52307-7.26154-13.07076,0-10.16615,7.26154-10.16615,7.26154l1.45231,5.80923-4.35692,1.45231-2.90461-5.80923s1.45231,13.07076,5.80923,18.87999-7.26154,4.35692-7.26154,4.35692Z" fill="#2f2e41"/><path id="c-260" d="M54.86815,265.84834c3.98565,6.44709,10.54287,9.61649,14.64542,7.07933,4.10255-2.53717,4.19644-9.81916,.20851-16.26801-1.55768-2.5979-3.71486-4.785-6.29107-6.37829l-17.23233-27.10331-12.54642,8.35773,18.32006,25.83174c.27412,3.01765,1.2671,5.92574,2.89583,8.48082Z" fill="#ffb6b6"/><path d="M35.21858,95.22805h-7.26154S-1.0891,160.58188,.3632,173.65264c0,0,0,11.61846,7.26154,20.3323,7.26154,8.71384,37.75999,58.09229,37.75999,58.09229l13.07076-10.16615-26.14153-60.9969,15.97538-63.90152-13.07076-21.78461Z" fill="#2f2e41"/></g><path d="M428.04004,491.01619h0c0,.46393-.3761,.84003-.84003,.84003H.84003c-.46393,0-.84003-.37609-.84003-.84003H0c0-.46394,.37609-.84003,.84003-.84003H427.20001c.46393,0,.84003,.3761,.84003,.84003Z" fill="#e6e6e6"/><path d="M270.87999,186.13037c-3.43018,0-6.69922-1.40137-9.05127-3.90137-15.14258-16.09766-23.48193-37.13232-23.48193-59.229,0-18.41357,5.7124-35.99365,16.52002-50.84033,2.13574-2.93311,5.44971-4.77393,9.09277-5.0498,3.7002-.28516,7.31982,1.07031,9.92871,3.70605l43.91211,44.35547c4.39453,4.43896,4.84375,11.52588,1.04492,16.48438l-37.94824,49.53223c-2.25488,2.94336-5.67334,4.73877-9.37939,4.92627-.21289,.01074-.42578,.01611-.6377,.01611Z" fill="#b5c1fb"/><path d="M340.84679,212c-13.53955,0-26.53125-3.00098-38.61426-8.91895-4.38916-2.14941-7.54785-6.11133-8.6665-10.87109-1.11816-4.75977-.05469-9.71387,2.91846-13.59277l31.62305-41.27734c5.75293-7.50879,5.07227-18.24121-1.58252-24.96436l-32.37207-32.69824c-4.6792-4.72656-6.80127-11.20898-5.8208-17.78516,.98535-6.61035,4.93164-12.2251,10.82764-15.40381,13.29346-7.16748,28.35693-10.79492,43.56396-10.46875,45.82861,.95605,83.604,37.52344,85.99902,83.24854,1.2793,24.42871-7.25586,47.61865-24.03418,65.29736-16.78857,17.69141-39.46143,27.43457-63.8418,27.43457Zm.03223-173c-14.08252,0-10.71289,13.3584-23.03223,20-5.05566,2.72559-25.70312-2.33203-26.54785,3.33447-.83936,5.63184,.97803,11.18408,4.98584,15.23242l32.37207,32.69824c7.7041,7.78271,8.4917,20.20654,1.83252,28.89893l-31.62354,41.27734c-2.42432,3.16309-3.29102,7.20215-2.37891,11.08301,.91162,3.87988,3.48682,7.11035,7.06494,8.86328,11.66895,5.71484,24.2168-14.3877,37.29492-14.3877,23.54932,0,45.44922,13.58887,61.66602-3.49902,16.20605-17.07666,24.4502-39.47754,23.21387-63.07568-2.31299-44.16406-38.7998-79.48291-83.06543-80.40674-.59375-.01221-1.18896-.01855-1.78223-.01855Z" fill="#e6e6e6"/><path d="M346.61437,124.36328c-1.70996-1.99805-2.56494-4.92236-2.56494-8.7749,0-3.81543,.85498-6.72314,2.56494-8.72119,1.70947-1.99756,4.07715-2.99658,7.10107-2.99658,3.05957,0,5.4541,.99902,7.18213,2.99658,1.72803,1.99805,2.5918,4.90576,2.5918,8.72119,0,3.85254-.86377,6.77686-2.5918,8.7749s-4.12256,2.99707-7.18213,2.99707c-3.02393,0-5.3916-.99902-7.10107-2.99707Zm10.1792-3.10498c.64795-1.15186,.97168-3.0415,.97168-5.66992,0-2.55566-.33301-4.41846-.99902-5.58887-.6665-1.16943-1.68311-1.75488-3.05078-1.75488-1.33203,0-2.32178,.58545-2.97021,1.75488-.64795,1.17041-.97168,3.0332-.97168,5.58887,0,2.5918,.32373,4.47363,.97168,5.64307,.64844,1.17041,1.63818,1.75488,2.97021,1.75488,1.40381,0,2.43018-.5752,3.07812-1.72803Zm-.48108,16.45886l19.27307-33.307h0c2.66073,0,4.32136,2.88302,2.98635,5.18459l-19.29446,33.26366h0c-2.63849,0-4.28643-2.85753-2.96496-5.14124Zm17.67981,2.5221c-1.70996-1.99805-2.56494-4.94092-2.56494-8.8291,0-3.81543,.85498-6.71338,2.56494-8.69385,1.70947-1.97949,4.09473-2.96973,7.15527-2.96973,3.05908,0,5.44482,.99023,7.15479,2.96973,1.70947,1.98047,2.56494,4.89648,2.56494,8.74805,0,3.85254-.85547,6.77686-2.56494,8.7749-1.70996,1.99805-4.0957,2.99707-7.15479,2.99707-3.06055,0-5.4458-.99902-7.15527-2.99707Zm10.1792-3.13184c.64795-1.16943,.97217-3.05078,.97217-5.64307,0-2.55566-.3335-4.41846-.99902-5.58887-.66699-1.16943-1.66553-1.75488-2.99707-1.75488-1.36865,0-2.37598,.58545-3.02393,1.75488-.64844,1.17041-.97217,3.0332-.97217,5.58887,0,2.59229,.32373,4.47363,.97217,5.64307,.64795,1.17041,1.65527,1.75488,3.02393,1.75488,1.36768,0,2.37598-.58447,3.02393-1.75488Z"/></svg>