<svg id="Layer_1" data-name="Layer 1" xmlns="http://www.w3.org/2000/svg" viewBox="0 0 512 512"><title>laughing-tears</title><g id="laughing-tears"><path d="M486.18,256c0,127.14-103,230.17-230.17,230.17S25.83,383.14,25.83,256,128.87,25.83,256,25.83,486.18,128.88,486.18,256Z" fill="#ffd764"/><path d="M493.39,343.25c27.72-23.25,23.84-56-7.39-80.71-21.24-16.8-58.51-26-90.09-35.46,3.87,32.76,6.41,71,19.28,94.88C434.11,357,465.67,366.5,493.39,343.25Z" fill="#00b4dc"/><path d="M18.61,343.25C-9.11,320-5.23,287.27,26,262.55c21.24-16.8,58.52-26,90.09-35.46-3.87,32.76-6.41,71-19.28,94.88C77.89,357,46.32,366.5,18.61,343.25Z" fill="#00b4dc"/><path d="M203.19,231.44a9.55,9.55,0,0,1-9.55-9.55,32.69,32.69,0,1,0-65.38,0,9.56,9.56,0,0,1-19.12,0,51.81,51.81,0,1,1,103.61,0,9.56,9.56,0,0,1-9.57,9.55Z" fill="#4a4a4a"/><path d="M393.3,231.44a9.56,9.56,0,0,1-9.56-9.55,32.69,32.69,0,1,0-65.38,0,9.55,9.55,0,0,1-19.11,0,51.81,51.81,0,1,1,103.61,0,9.56,9.56,0,0,1-9.57,9.55Z" fill="#4a4a4a"/><path d="M398.71,292.22c0,67.15-63.88,134.33-142.71,134.33S113.29,359.36,113.29,292.22Z" fill="#fa645a"/><path d="M113.29,292.22a114.56,114.56,0,0,0,5.63,34.6H393.07a114,114,0,0,0,5.64-34.6Z" fill="#fff"/></g></svg>