<svg id="Layer_1" data-name="Layer 1" xmlns="http://www.w3.org/2000/svg" viewBox="0 0 512 512"><title>sleeping</title><g id="sleeping"><path d="M512,256c0,141.38-114.62,256-256,256S0,397.38,0,256,114.62,0,256,0,512,114.62,512,256" fill="#ffd764"/><path d="M171.53,221.1a63.1,63.1,0,0,1-63-63,10.24,10.24,0,1,1,20.48,0,42.55,42.55,0,0,0,85.1,0,10.24,10.24,0,1,1,20.48,0,63.09,63.09,0,0,1-63,63Z" fill="#4a4a4a"/><path d="M340.46,221.1a63.1,63.1,0,0,1-63-63,10.24,10.24,0,1,1,20.48,0,42.56,42.56,0,0,0,85.11,0,10.24,10.24,0,0,1,20.48,0,63.1,63.1,0,0,1-63,63Z" fill="#4a4a4a"/><path d="M330.93,365.08H181.07a11.14,11.14,0,0,1,0-22.28H330.93a11.14,11.14,0,0,1,0,22.28Z" fill="#fa645a"/><path d="M378.69,512H319.35a10.23,10.23,0,0,1-8.19-16.38l51-68.09H315.35a10.24,10.24,0,0,1,0-20.48h67.34a10.24,10.24,0,0,1,8.2,16.38l-51.06,68.09h38.86a10.24,10.24,0,0,1,0,20.48Z" fill="#4a4a4a"/><path d="M484.27,512H421.95a10.24,10.24,0,0,1-7.8-16.87l39.46-46.48H420.92a10.24,10.24,0,0,1,0-20.48h54.82A10.24,10.24,0,0,1,483.55,445l-39.47,46.48h40.19a10.24,10.24,0,0,1,0,20.48Z" fill="#4a4a4a"/></g></svg>