<svg id="Layer_1" data-name="Layer 1" xmlns="http://www.w3.org/2000/svg" viewBox="0 0 512 512"><title>laughing-crying</title><g id="laughing-crying"><path d="M512,256c0,141.38-114.62,256-256,256S0,397.38,0,256,114.62,0,256,0,512,114.62,512,256" fill="#ffd764"/><path d="M298.65,329.72H213.39a46.07,46.07,0,1,0,85.26,0Z" fill="#fa645a"/><path d="M298.63,329.72a44.18,44.18,0,0,0-2.85-5.72c-.15-.24-.31-.48-.44-.72a47.07,47.07,0,0,0-7.81-9.65l-.78-.69a47.08,47.08,0,0,0-4.76-3.8s0,0,0,0a43.7,43.7,0,0,0-5.26-3.06c-.4-.2-.79-.39-1.2-.57a46.23,46.23,0,0,0-5.55-2.22l-.15,0a44.18,44.18,0,0,0-6-1.41l-1.48-.23a47.17,47.17,0,0,0-6.33-.48,46.64,46.64,0,0,0-6.31.48l-1.49.23a44.73,44.73,0,0,0-6,1.41l-.15,0a47,47,0,0,0-5.55,2.22l-1.18.57a44.76,44.76,0,0,0-5.28,3.06,0,0,0,0,1,0,0,43.86,43.86,0,0,0-4.75,3.8l-.78.69a45.78,45.78,0,0,0-7.81,9.65c-.15.24-.31.48-.45.72a45.45,45.45,0,0,0-2.84,5.72h85.24Z" fill="#fff"/><path d="M151.09,498.36a30.72,30.72,0,0,1-30.72-30.72V198a30.72,30.72,0,1,1,61.44,0V467.64a30.72,30.72,0,0,1-30.72,30.72Z" fill="#00b4dc"/><path d="M188.67,215.16a8.49,8.49,0,0,1-8.5-8.49,29.08,29.08,0,1,0-58.16,0,8.5,8.5,0,0,1-17,0,46.08,46.08,0,1,1,92.16,0,8.49,8.49,0,0,1-8.5,8.49Z" fill="#4a4a4a"/><path d="M360.91,498.36a30.72,30.72,0,0,1-30.72-30.72V198a30.72,30.72,0,1,1,61.44,0V467.64a30.71,30.71,0,0,1-30.72,30.72Z" fill="#00b4dc"/><path d="M398.47,215.16a8.5,8.5,0,0,1-8.5-8.49,29.08,29.08,0,1,0-58.16,0,8.49,8.49,0,1,1-17,0,46.08,46.08,0,1,1,92.16,0,8.51,8.51,0,0,1-8.52,8.49Z" fill="#4a4a4a"/></g></svg>